<svg id="_2.svg" data-name="2.svg" xmlns="http://www.w3.org/2000/svg" width="46" height="47" viewBox="0 0 46 47">
  <defs>
    <style>
      .cls-1 {
        fill: #4d38ed;
      }

      .cls-1, .cls-2 {
        fill-rule: evenodd;
      }

      .cls-2 {
        fill: #ffac4f;
      }
    </style>
  </defs>
  <path class="cls-1" d="M1018.49,765.4a1.407,1.407,0,0,1-1.13.557h-2.11l0.34,0.895a8.3,8.3,0,0,1,.52,2.876v2.1a0.725,0.725,0,1,1-1.45,0v-2.1a6.74,6.74,0,0,0-.42-2.353l-0.71-1.891a0.774,0.774,0,0,1,.08-0.678,0.728,0.728,0,0,1,.59-0.318h3.16l-0.55-2.371a0.71,0.71,0,0,0-.7-0.566h-3.34a0.739,0.739,0,0,1-.65-0.406l-2.77-5.642a3.576,3.576,0,0,0-3.23-2.03H985.675a3.582,3.582,0,0,0-3.227,2.03l-2.773,5.642a0.72,0.72,0,0,1-.646.406h-3.342a0.721,0.721,0,0,0-.7.566l-0.548,2.371h3.157a0.716,0.716,0,0,1,.594.318,0.746,0.746,0,0,1,.081.678l-0.708,1.891a6.678,6.678,0,0,0-.426,2.353v7.209a6.714,6.714,0,0,0,.135,1.342l0.572,2.8a0.746,0.746,0,0,1,.015.149v4.556h7.217v-2.937h-2.165a0.735,0.735,0,0,1,0-1.469h12.269a0.735,0.735,0,0,1,0,1.469h-8.661v2.937a1.458,1.458,0,0,1-1.443,1.469h-7.217a1.458,1.458,0,0,1-1.444-1.469V781.3l-0.556-2.726a8.223,8.223,0,0,1-.165-1.641v-7.209a8.18,8.18,0,0,1,.52-2.876l0.335-.895h-2.11a1.426,1.426,0,0,1-1.131-.557,1.479,1.479,0,0,1-.274-1.248l0.547-2.371a2.165,2.165,0,0,1,2.108-1.7h2.9l2.574-5.236A5.015,5.015,0,0,1,985.675,752h20.445a5.012,5.012,0,0,1,4.52,2.842l2.58,5.236h2.89a2.167,2.167,0,0,1,2.11,1.7l0.55,2.372A1.471,1.471,0,0,1,1018.49,765.4Zm-23.312,10.838a0.735,0.735,0,0,1,0,1.469h-5.052a0.735,0.735,0,0,1,0-1.469h5.052Zm-9.771-7.133a0.718,0.718,0,0,1,.969.329l1.017,2.07a0.748,0.748,0,0,1-.032.714,0.72,0.72,0,0,1-.614.349h-6a0.735,0.735,0,0,1,0-1.469h4.835l-0.5-1.007A0.742,0.742,0,0,1,985.407,769.1Zm-1.055-6.085a0.728,0.728,0,0,1,.722-0.735h22.376a0.735,0.735,0,0,1,0,1.469H985.074A0.728,0.728,0,0,1,984.352,763.016Z" transform="translate(-973 -752)"/>
  <path id="Shape_2_copy" data-name="Shape 2 copy" class="cls-2" d="M1006.73,799a0.7,0.7,0,0,1-.46-0.164l-7.007-5.785a13.254,13.254,0,0,1-4.807-10.266V772.47a0.729,0.729,0,0,1,.707-0.735,21.545,21.545,0,0,0,11.147-3.441,0.711,0.711,0,0,1,.84,0,21.446,21.446,0,0,0,11.14,3.441,0.726,0.726,0,0,1,.7.735v10.315a13.263,13.263,0,0,1-4.8,10.266l-7.01,5.785A0.694,0.694,0,0,1,1006.73,799ZM995.9,773.178v9.607a11.786,11.786,0,0,0,4.271,9.125l6.56,5.41,6.55-5.41a11.8,11.8,0,0,0,4.27-9.125v-9.607a22.86,22.86,0,0,1-10.82-3.406A22.958,22.958,0,0,1,995.9,773.178Z" transform="translate(-973 -752)"/>
</svg>

