<svg xmlns="http://www.w3.org/2000/svg" width="129" height="41" viewBox="0 0 129 41"><defs><style>.cls-1{fill-rule:evenodd}</style></defs><path id="_04.svg" data-name="04.svg" class="cls-1" d="M693.587 561.554a3.12 3.12.0 0 1 .252-1.242 3.324 3.324.0 0 1 .694-1.032 3.282 3.282.0 0 1 1.025-.7 3.188 3.188.0 0 1 2.508.0 3.269 3.269.0 0 1 1.03.7 3.353 3.353.0 0 1 .7 1.032 3.161 3.161.0 0 1 0 2.5 3.291 3.291.0 0 1-1.728 1.717 3.234 3.234.0 0 1-2.508.0 3.279 3.279.0 0 1-1.719-1.717A3.133 3.133.0 0 1 693.587 561.554zm.95.009a2.316 2.316.0 0 0 .672 1.638 2.364 2.364.0 0 0 .733.5 2.218 2.218.0 0 0 .89.183 2.181 2.181.0 0 0 .885-.183 2.29 2.29.0 0 0 .724-.5 2.324 2.324.0 0 0 .668-1.647 2.309 2.309.0 0 0-.672-1.639 2.373 2.373.0 0 0-.729-.5 2.161 2.161.0 0 0-.885-.183 2.2 2.2.0 0 0-.89.183 2.31 2.31.0 0 0-.728.5 2.336 2.336.0 0 0-.488.741A2.312 2.312.0 0 0 694.537 561.563zm6.622 3.146v-6.318h1.728a3.02 3.02.0 0 1 .911.13 2.031 2.031.0 0 1 .715.388 1.74 1.74.0 0 1 .467.627 2.056 2.056.0 0 1 .167.85 2.582 2.582.0 0 1-.053.519 2.025 2.025.0 0 1-.171.5 1.933 1.933.0 0 1-.3.445 1.6 1.6.0 0 1-.445.344q.349.549.759 1.216t.829 1.3h-1.143c-.116-.18-.238-.369-.362-.566s-.251-.394-.375-.589-.248-.386-.367-.575-.231-.365-.336-.528h-1.064v2.258h-.96zm.96-3.155h.864a1.293 1.293.0 0 0 .584-.118 1.072 1.072.0 0 0 .371-.291 1.085 1.085.0 0 0 .191-.375 1.309 1.309.0 0 0 .057-.366 1.267 1.267.0 0 0-.057-.362 1.009 1.009.0 0 0-.2-.366 1.078 1.078.0 0 0-.371-.283 1.3 1.3.0 0 0-.572-.113h-.872v2.274zm4.519-3.163h.95v6.318h-.95v-6.318zm7.224 3.293v2.65a3.223 3.223.0 0 1-.873.327 4.5 4.5.0 0 1-1.03.118 3.646 3.646.0 0 1-1.347-.236 3.041 3.041.0 0 1-1.025-.649 2.771 2.771.0 0 1-.654-.98 3.286 3.286.0 0 1-.228-1.238 3.368 3.368.0 0 1 .267-1.355 3.243 3.243.0 0 1 .724-1.059 3.348 3.348.0 0 1 1.056-.693 3.281 3.281.0 0 1 1.269-.248 4.2 4.2.0 0 1 .95.117 3.036 3.036.0 0 1 .864.337l-.462.774a1.72 1.72.0 0 0-.3-.138 3.234 3.234.0 0 0-.354-.1 3.126 3.126.0 0 0-.366-.066 3.056 3.056.0 0 0-.349-.022 2.233 2.233.0 0 0-.889.184 2.343 2.343.0 0 0-.751.5 2.462 2.462.0 0 0-.515.758 2.309 2.309.0 0 0-.191.942 2.272 2.272.0 0 0 .169.871 2.3 2.3.0 0 0 .476.723 2.221 2.221.0 0 0 .733.5 2.38 2.38.0 0 0 .942.183 3.5 3.5.0 0 0 .476-.04 2.53 2.53.0 0 0 .527-.134v-1.2h-1.23v-.82h2.112zm1.256-3.293h.951v6.318h-.951v-6.318zm8.053.0V565a6.45 6.45.0 0 0-.472-.5l-.8-.8q-.454-.453-.965-.95t-.963-.945c-.3-.3-.567-.566-.8-.8s-.377-.4-.452-.5l-.167-.227.027.28v4.165h-.96v-6.615a4.32 4.32.0 0 0 .319.348c.147.152.322.328.523.528s.422.418.662.649l.733.706.733.7q.363.343.663.64c.2.2.374.373.52.523s.247.265.305.34l.166.244-.026-.3v-4.087h.951zm5.47 6.318c-.03-.064-.07-.158-.123-.279s-.111-.263-.178-.423-.14-.334-.219-.523-.158-.385-.239-.588h-2.234l-.75 1.813h-.942l2.818-6.615q.052.123.187.445t.322.771q.189.449.419.993t.472 1.1l.471 1.1c.154.361.294.692.424.993s.236.56.327.771.152.36.187.441h-.942zm-2.661-2.615h1.579c-.082-.191-.158-.376-.232-.553s-.139-.34-.2-.488-.115-.278-.162-.388-.081-.2-.1-.261a1.2 1.2.0 0 1-.039-.122 1.629 1.629.0 0 1-.048-.192 1.72 1.72.0 0 1-.053.192c-.023.069-.038.11-.044.122zm4.388 2.615v-6.318h.959V563.8h3.142v.906h-4.1zm11.429-3.025v2.65a3.223 3.223.0 0 1-.873.327 4.493 4.493.0 0 1-1.029.118 3.651 3.651.0 0 1-1.348-.236 3.061 3.061.0 0 1-1.025-.649 2.784 2.784.0 0 1-.654-.98 3.286 3.286.0 0 1-.228-1.238 3.368 3.368.0 0 1 .267-1.355 3.23 3.23.0 0 1 .725-1.059 3.344 3.344.0 0 1 1.055-.693 3.284 3.284.0 0 1 1.269-.248 4.2 4.2.0 0 1 .95.117 3.043 3.043.0 0 1 .865.337l-.463.774a1.72 1.72.0 0 0-.3-.138 3.283 3.283.0 0 0-.353-.1 3.142 3.142.0 0 0-.367-.066 3.056 3.056.0 0 0-.349-.022 2.236 2.236.0 0 0-.889.184 2.339 2.339.0 0 0-.75.5 2.448 2.448.0 0 0-.516.758 2.326 2.326.0 0 0-.191.942 2.254 2.254.0 0 0 .17.871 2.281 2.281.0 0 0 .475.723 2.232 2.232.0 0 0 .733.5 2.387 2.387.0 0 0 .942.183 3.482 3.482.0 0 0 .476-.04 2.5 2.5.0 0 0 .527-.134v-1.2h-1.229v-.82H741.8zm1.257 3.025v-6.318h4.152v.862h-3.193V561.1h2.844v.881h-2.844v1.846h3.316v.881h-4.275zm10.931-6.318V565a6.254 6.254.0 0 0-.472-.5l-.8-.8q-.455-.453-.965-.95t-.964-.945c-.3-.3-.566-.566-.794-.8s-.377-.4-.453-.5l-.166-.227.026.28v4.165h-.959v-6.615a4.084 4.084.0 0 0 .318.348c.148.152.323.328.523.528s.422.418.663.649l.733.706q.371.357.733.7t.662.64c.2.2.375.373.52.523a4.547 4.547.0 0 1 .3.34l.167.244-.027-.3v-4.087h.951zm3.891 6.388a2.643 2.643.0 0 1-.942-.166 2.363 2.363.0 0 1-.764-.466 2.177 2.177.0 0 1-.515-.723 2.328 2.328.0 0 1-.187-.946v-4.087h.959v4.06a1.421 1.421.0 0 0 .11.563 1.382 1.382.0 0 0 .3.452 1.408 1.408.0 0 0 .458.307 1.577 1.577.0 0 0 1.147.0 1.384 1.384.0 0 0 .462-.307 1.428 1.428.0 0 0 .31-.452 1.372 1.372.0 0 0 .114-.563v-4.06h.959v4.087a2.312 2.312.0 0 1-.187.946 2.163 2.163.0 0 1-.515.723 2.35 2.35.0 0 1-.768.466A2.673 2.673.0 0 1 757.876 564.779zm3.9-6.388h.951v6.318h-.951v-6.318zm8.053.0V565a6.38 6.38.0 0 0-.471-.5l-.8-.8q-.453-.453-.964-.95t-.963-.945c-.3-.3-.568-.566-.794-.8a6.562 6.562.0 0 1-.454-.5l-.167-.227.027.28v4.165h-.96v-6.615q.1.123.319.348t.523.528c.2.2.422.418.663.649l.733.706c.248.238.491.472.733.7s.463.443.663.64.374.373.52.523.246.265.305.34l.165.244-.026-.3v-4.087h.951zm1.554 6.318v-6.318h4.152v.862h-3.193V561.1h2.844v.881h-2.844v1.846h3.316v.881h-4.275zm6.944-3.155a3.12 3.12.0 0 1 .252-1.242 3.363 3.363.0 0 1 .689-1.032 3.241 3.241.0 0 1 1.021-.7 3.188 3.188.0 0 1 2.508.0 3.33 3.33.0 0 1 1.737 1.734 3.073 3.073.0 0 1 .257 1.242 3.324 3.324.0 0 1-.235 1.255 3.815 3.815.0 0 1-.655 1.072l1.091-.078v.906h-2.766c-.116.023-.229.04-.34.052s-.224.018-.34.018a3.127 3.127.0 0 1-1.257-.253 3.235 3.235.0 0 1-1.021-.694 3.3 3.3.0 0 1-.689-1.023A3.133 3.133.0 0 1 778.326 561.554zm.95.009a2.281 2.281.0 0 0 .18.9 2.35 2.35.0 0 0 .487.736 2.312 2.312.0 0 0 .729.5 2.24 2.24.0 0 0 .9.183 2.181 2.181.0 0 0 .885-.183 2.29 2.29.0 0 0 .724-.5 2.317 2.317.0 0 0 .667-1.647 2.244 2.244.0 0 0-.182-.9 2.409 2.409.0 0 0-.494-.737 2.288 2.288.0 0 0-.728-.5 2.256 2.256.0 0 0-1.78.0 2.27 2.27.0 0 0-.724.5 2.374 2.374.0 0 0-.483.741A2.312 2.312.0 0 0 779.276 561.563zm9 3.216a2.643 2.643.0 0 1-.942-.166 2.348 2.348.0 0 1-.763-.466 2.165 2.165.0 0 1-.516-.723 2.328 2.328.0 0 1-.187-.946v-4.087h.96v4.06a1.42 1.42.0 0 0 .109.563 1.382 1.382.0 0 0 .3.452 1.412 1.412.0 0 0 .459.307 1.487 1.487.0 0 0 .575.108 1.5 1.5.0 0 0 .571-.108 1.4 1.4.0 0 0 .463-.307 1.442 1.442.0 0 0 .309-.452 1.372 1.372.0 0 0 .114-.563v-4.06H790.7v4.087a2.312 2.312.0 0 1-.187.946 2.163 2.163.0 0 1-.515.723 2.35 2.35.0 0 1-.768.466A2.673 2.673.0 0 1 788.28 564.779zm7.643-.07c-.029-.064-.07-.158-.122-.279s-.112-.263-.179-.423-.14-.334-.218-.523-.158-.385-.24-.588h-2.233l-.75 1.813h-.943l2.818-6.615.188.445c.089.215.2.472.322.771s.265.63.419.993.311.731.471 1.1.317.738.471 1.1.295.692.424.993.237.56.327.771.153.36.188.441h-.943zm-2.661-2.615h1.579c-.081-.191-.159-.376-.231-.553l-.2-.488c-.06-.148-.115-.278-.161-.388s-.082-.2-.105-.261c0-.012-.018-.053-.039-.122s-.036-.134-.048-.192a1.512 1.512.0 0 1-.052.192c-.024.069-.038.11-.043.122zm4.388 2.615v-6.318h.959V563.8h3.142v.906h-4.1zm4.981-6.318h.951v6.318h-.951v-6.318zm6.186.0V559.3h-1.6v5.412h-.95V559.3h-1.562v-.906h4.109zm3.69 4.235v2.083h-.959v-2.083q-.062-.1-.24-.418c-.119-.216-.259-.469-.419-.763s-.331-.605-.515-.936-.354-.644-.514-.938-.3-.547-.419-.763-.2-.353-.24-.417h1.082c.052.086.145.254.279.5s.282.526.445.838.328.625.5.94.312.589.428.815l.1.288a1.2 1.2.0 0 0 .061-.143l.052-.145q.183-.339.427-.815l.485-.94c.159-.312.3-.59.436-.838s.222-.414.275-.5h1.073zm-85.188-29.865v12.452h-2.7V532.761h2.7zm9.151 12.452h-2.7V534.879a.391.391.0 0 0-.106-.27.339.339.0 0 0-.26-.115h-1.04a.341.341.0 0 0-.261.115.39.39.0 0 0-.105.27v10.334h-2.7v-10.1q0-2.539 2.389-2.54h2.389q2.388.0 2.389 2.54v10.1zm6.761-12.452q2.389.0 2.389 2.541v7.371q0 2.539-2.389 2.54H738.28V532.761h4.951zm-.308 10.22v-8.006a.387.387.0 0 0-.106-.27.342.342.0 0 0-.26-.115h-1.579v8.775h1.579a.339.339.0 0 0 .26-.115A.385.385.0 0 0 742.923 542.981zm9.151-10.22h2.7v10.1q0 2.541-2.389 2.54h-2.389q-2.388.0-2.389-2.54v-10.1h2.7V543.1a.38.38.0 0 0 .106.268.335.335.0 0 0 .26.116h1.041a.338.338.0 0 0 .26-.116.384.384.0 0 0 .1-.268V532.761zm11.464 3.273h-2.562v-.983a.387.387.0 0 0-.106-.268.34.34.0 0 0-.261-.116H759.55a.334.334.0 0 0-.26.116.382.382.0 0 0-.106.268v2.214a.383.383.0 0 0 .106.269.334.334.0 0 0 .26.116h1.734q2.389.039 2.389 2.54v2.675q0 2.541-2.389 2.54H759.01q-2.389.0-2.389-2.54v-1.289h2.563v1.385a.387.387.0 0 0 .106.27.34.34.0 0 0 .26.116h1.2a.341.341.0 0 0 .259-.116.387.387.0 0 0 .106-.27v-2.444a.385.385.0 0 0-.106-.269.338.338.0 0 0-.259-.116H759.01q-2.389.0-2.389-2.54v-2.483q0-2.539 2.389-2.54h2.138q2.389.0 2.39 2.54v.925zm1.194-.983v-2.29h6.744v2.29h-2.024v10.162h-2.7V535.051h-2.024zm10.674 5.063v5.1h-2.7V532.761h4.8q2.389.0 2.389 2.541v1.443a1.856 1.856.0 0 1-1.1 1.963 1.488 1.488.0 0 1 .963 1.578v4.927h-2.7V540.5a.331.331.0 0 0-.365-.384h-1.291zm0-5.524v3.638h1.425a.345.345.0 0 0 .261-.116.391.391.0 0 0 .106-.27v-2.867a.391.391.0 0 0-.106-.27.344.344.0 0 0-.261-.115h-1.425zm13.447-1.829-2.678 7.91v4.542h-2.7v-4.542l-2.678-7.91h2.543l1.484 5.2 1.483-5.2h2.543zm9.692 10.412v-1.924h2.562v1.616q0 2.541-2.389 2.54H796.29q-2.388.0-2.389-2.54v-7.756q0-2.539 2.389-2.54h2.428q2.388.0 2.389 2.54v1.175h-2.562v-1.5a.39.39.0 0 0-.106-.27.341.341.0 0 0-.261-.115h-1.214a.335.335.0 0 0-.259.115.385.385.0 0 0-.106.27v8.39a.387.387.0 0 0 .106.27.335.335.0 0 0 .259.115h1.214a.341.341.0 0 0 .261-.115A.391.391.0 0 0 798.545 543.173zm11.521-8.064v7.756q0 2.541-2.389 2.54h-2.563q-2.39.0-2.39-2.54v-7.756q0-2.539 2.39-2.54h2.563Q810.065 532.569 810.066 535.109zm-2.7 8.064v-8.39a.385.385.0 0 0-.106-.27A.339.339.0 0 0 807 534.4h-1.214a.339.339.0 0 0-.26.115.385.385.0 0 0-.106.27v8.39a.387.387.0 0 0 .106.27.339.339.0 0 0 .26.115H807a.339.339.0 0 0 .26-.115A.387.387.0 0 0 807.368 543.173zm4.855.847a1.379 1.379.0 1 1 .4.981A1.334 1.334.0 0 1 812.223 544.02zm6.362 9.918H690.413a.419.419.0 0 1-.42-.419V524.427a.42.42.0 0 1 .42-.419H818.585a.42.42.0 0 1 .42.419v29.092A.419.419.0 0 1 818.585 553.938zM690.833 553.1H818.165V524.847H690.833V553.1zm28.7.42H690.413V524.428h29.123v29.091zm-3.232-19.4-4.838-4.832a.369.369.0 0 0-.26-.108H698.744a.369.369.0 0 0-.261.108l-4.837 4.832a.367.367.0 0 0-.018.5L704.7 547.319a.368.368.0 0 0 .556.0l11.068-12.694A.368.368.0 0 0 716.3 534.123zm-11.224-4.2 3.954 4.233h-8.043l3.954-4.233h.135zm.63.0h5.2l-1.433 4.03zm-5.158 4.029-1.433-4.029h5.2zm-.417.2h-5.477l4.042-4.037zm.164.46 3.926 11.044L694.6 534.613h5.7zm4.708 11.867-4.219-11.867h8.45l-4.211 11.843zm4.72-11.867h5.626l-9.5 10.9zm.163-.46 1.416-3.981 3.985 3.981h-5.4z" transform="translate(-690 -524)"/></svg>


