<?xml version="1.0" encoding="utf-8"?><svg width="518" height="491" viewBox="0 0 518 491" xmlns="http://www.w3.org/2000/svg" xmlns:xlink="http://www.w3.org/1999/xlink"><svg width="19" height="13" viewBox="-2 -2 19 13" id="Polygon_1" x="464.876" y="218" xmlns="http://www.w3.org/2000/svg">
  <defs>
    <style>.aacls-1{fill:#fff;fill-rule:evenodd}</style>
  </defs>
  <path id="aaPolygon_1" data-name="Polygon 1" class="aacls-1" d="M958.5,795l-7.509,9.012h15.018Z" transform="translate(-951 -795)"/>
</svg><svg width="273" height="263" viewBox="-2 -2 273 263" id="about-symbol" xmlns="http://www.w3.org/2000/svg">
  <defs>
    <style>.abcls-1{fill:#dec8b6;fill-rule:evenodd}</style>
  </defs>
  <path class="abcls-1" d="M1316.53,5560.39c1.59-61.16,38.51-110.36,85.88-114.45h0.01c52.81-4.9,100.8,46.48,107.21,114.54l0.11,1.12h38.08l-0.21-3.02c-3.43-37.91-19.93-69.26-47.7-90.66-26.37-20.31-61.07-29.63-97.71-26.24-69.29,6.05-118.78,53.71-123.12,118.6l-0.09,1.32h37.51Zm193.86,19.12c-1.19,61.42-38.11,111.09-85.89,115.53-53.13,4.57-101.35-47.27-107.33-115.61l-0.1-1.13h-38.04l0.14,2.45c0.04,0.66.08,1.33,0.13,2.01,3.43,37.75,19.93,68.99,47.7,90.34,22.84,17.56,51.89,26.89,83.02,26.89q7.29,0,14.69-.69c69.94-6.11,119.46-54.21,123.22-119.69l0.07-1.31h-37.59Z" transform="translate(-1279 -5441)"/>
</svg><svg width="32" height="30" viewBox="-2 -2 32 30" id="airbus-m" x="204" y="369.344" xmlns="http://www.w3.org/2000/svg">
  <path fill-rule="evenodd" fill="rgb(255, 255, 255)" d="M26.987,8.919 C26.684,7.758 25.492,7.078 24.345,7.413 L18.064,9.242 L10.377,0.492 L7.208,1.344 L12.294,10.923 L5.830,12.805 L3.500,10.873 L0.636,11.643 L3.649,15.197 L2.763,19.799 L5.627,19.029 L6.710,16.178 L13.245,14.565 L13.496,25.444 L16.665,24.591 L19.077,13.125 L25.426,11.557 C26.586,11.270 27.290,10.081 26.987,8.919 Z"/>
</svg><svg width="42.438" height="13.313" viewBox="-2 -2 42.438 13.313" id="arrow-back" x="471" y="172.18800000000002" xmlns="http://www.w3.org/2000/svg">
  <defs>
    <style>.adcls-1{fill:#fff;fill-rule:evenodd}</style>
  </defs>
  <path id="adShape_5_copy_5" data-name="Shape 5 copy 5" class="adcls-1" d="M64.084,38.621l0.018,0H29.436l2.41-2.362a0.61,0.61,0,0,0,0-.87l-0.375-.367a0.637,0.637,0,0,0-.885,0l-4.131,4.04a0.608,0.608,0,0,0,0,.869l4.131,4.041a0.638,0.638,0,0,0,.885,0l0.375-.367a0.6,0.6,0,0,0,.183-0.433,0.583,0.583,0,0,0-.183-0.425l-2.437-2.376H64.092a0.642,0.642,0,0,0,.635-0.629V39.227A0.63,0.63,0,0,0,64.084,38.621Z" transform="translate(-26.281 -34.844)"/>
</svg><svg width="20" height="17" viewBox="-2 -2 20 17" id="arrow-left-white" x="205.873" y="347" xmlns="http://www.w3.org/2000/svg">
  <defs>
    <style>.aecls-1{fill:#fff;fill-rule:evenodd}</style>
  </defs>
  <path class="aecls-1" d="M1870.1,1022.73l0.03-.01h-10.71l3.36,3.3a0.846,0.846,0,0,1,0,1.22l-0.52.51a0.869,0.869,0,0,1-.62.25,0.9,0.9,0,0,1-.62-0.25l-5.77-5.64a0.869,0.869,0,0,1,0-1.22l5.77-5.64a0.9,0.9,0,0,1,.62-0.25,0.869,0.869,0,0,1,.62.25l0.52,0.51a0.832,0.832,0,0,1,.26.61,0.788,0.788,0,0,1-.26.59l-3.4,3.32h10.73a0.9,0.9,0,0,1,.89.88v0.72A0.887,0.887,0,0,1,1870.1,1022.73Z" transform="translate(-1855 -1015)"/>
</svg><svg width="15.719" height="24.031" viewBox="-2 -2 15.719 24.031" id="arrow-mobile-left" x="266.40500000000003" y="404.344" xmlns="http://www.w3.org/2000/svg">
  <defs>
    <style>.afcls-1{fill:#fff;fill-rule:evenodd}</style>
  </defs>
  <path id="afShape_9_copy_2" data-name="Shape 9 copy 2" class="afcls-1" d="M25.99,342.981l1.817-1.833,7.721-7.794a1.275,1.275,0,0,1,1.817,0,1.3,1.3,0,0,1,0,1.834l-7.721,7.793,7.721,7.794a1.3,1.3,0,0,1,0,1.834,1.275,1.275,0,0,1-1.817,0l-7.721-7.794Z" transform="translate(-26 -332.969)"/>
</svg><svg width="15.719" height="24.031" viewBox="-2 -2 15.719 24.031" id="arrow-mobile-right" x="282.124" y="404.344" xmlns="http://www.w3.org/2000/svg">
  <defs>
    <style>.agcls-1{fill:#fff;fill-rule:evenodd}</style>
  </defs>
  <path id="agShape_9_copy" data-name="Shape 9 copy" class="agcls-1" d="M328.01,362.981l-1.816-1.833-7.721-7.794a1.275,1.275,0,0,0-1.817,0,1.3,1.3,0,0,0,0,1.834l7.721,7.793-7.721,7.794a1.3,1.3,0,0,0,0,1.834,1.276,1.276,0,0,0,1.817,0l7.721-7.794Z" transform="translate(-316.281 -352.969)"/>
</svg><svg version="1.1" id="arrow-mobile-top-brown" x="306.875" y="231.312" viewBox="-2 -2 24 15.7" style="enable-background:new 0 0 20 11.7;" xml:space="preserve" width="24" height="15.7" xmlns="http://www.w3.org/2000/svg">
<style type="text/css">.ahst0{fill-rule:evenodd;clip-rule:evenodd;fill:#947d6b}</style>
<path id="ahShape_9_copy_2" class="ahst0" d="M10,0l1.8,1.8l7.8,7.7c0.5,0.5,0.5,1.3,0,1.8c0,0,0,0,0,0c-0.5,0.5-1.3,0.5-1.8,0L10,3.6
	l-7.8,7.7c-0.5,0.5-1.3,0.5-1.8,0c-0.5-0.5-0.5-1.3,0-1.8c0,0,0,0,0,0l7.8-7.7L10,0z"/>
</svg><svg width="20" height="17" viewBox="-2 -2 20 17" id="arrow-right-white" x="471" y="306.1" xmlns="http://www.w3.org/2000/svg">
  <defs>
    <style>.aicls-1{fill:#fff;fill-rule:evenodd}</style>
  </defs>
  <path id="aiarrow-left-white" class="aicls-1" d="M1855.9,1020.27l-0.03.01h10.71l-3.36-3.3a0.846,0.846,0,0,1,0-1.22l0.52-.51a0.869,0.869,0,0,1,.62-0.25,0.9,0.9,0,0,1,.62.25l5.77,5.64a0.869,0.869,0,0,1,0,1.22l-5.77,5.64a0.9,0.9,0,0,1-.62.25,0.869,0.869,0,0,1-.62-0.25l-0.52-.51a0.832,0.832,0,0,1-.26-0.61,0.788,0.788,0,0,1,.26-0.59l3.4-3.32h-10.73a0.9,0.9,0,0,1-.89-0.88v-0.72A0.887,0.887,0,0,1,1855.9,1020.27Z" transform="translate(-1855 -1015)"/>
</svg><svg width="35.938" height="19.938" viewBox="-2 -2 35.938 19.938" id="big-car" x="471" y="185.501" xmlns="http://www.w3.org/2000/svg">
  <defs>
    <style>.ajcls-1{fill:#fff;fill-rule:evenodd}</style>
  </defs>
  <path class="ajcls-1" d="M65.416,336.556a3.458,3.458,0,1,0,3.293,3.454A3.377,3.377,0,0,0,65.416,336.556Zm0,5.049a1.6,1.6,0,1,1,1.52-1.6A1.559,1.559,0,0,1,65.416,341.605Zm18.237-5.049a3.458,3.458,0,1,0,3.293,3.454A3.377,3.377,0,0,0,83.653,336.556Zm0,5.049a1.6,1.6,0,1,1,1.52-1.6A1.559,1.559,0,0,1,83.653,341.605Zm4.395-7.9-5.914-1.132L77.1,328.188a2.712,2.712,0,0,0-1.77-.666H67.91a2.726,2.726,0,0,0-2.176,1.1l-3.216,3.951H60.35a2.341,2.341,0,0,0-2.28,2.392v2.923a2.861,2.861,0,0,0,2.786,2.923h0.579a4.244,4.244,0,0,1,3.217-4.976,4.066,4.066,0,0,1,4.743,3.374,4.464,4.464,0,0,1,0,1.6H79.673a4.244,4.244,0,0,1,3.217-4.976,4.066,4.066,0,0,1,4.743,3.374,4.464,4.464,0,0,1,0,1.6h0.073a2.341,2.341,0,0,0,2.279-2.392v-2.349A2.345,2.345,0,0,0,88.048,333.7Zm-18.832-1.929a0.779,0.779,0,0,1-.76.8h-3.34a0.389,0.389,0,0,1-.38-0.4,0.409,0.409,0,0,1,.091-0.259l2.211-2.717a0.746,0.746,0,0,1,.578-0.279h0.841a0.779,0.779,0,0,1,.76.8v2.059Zm3.8,3.72H72a0.8,0.8,0,0,1,0-1.594h1.013A0.8,0.8,0,0,1,73.015,335.493ZM79,332.59l-7.251-.018a0.779,0.779,0,0,1-.758-0.8v-2.061a0.779,0.779,0,0,1,.76-0.8h3.644a0.737,0.737,0,0,1,.471.171l3.37,2.79a0.412,0.412,0,0,1,.064.56A0.376,0.376,0,0,1,79,332.59Z" transform="translate(-58.063 -327.531)"/>
</svg><svg version="1.1" id="car-m" x="471" y="263" viewBox="-2 -2 43.1 43.1" style="enable-background:new 0 0 39.1 39.1;" xml:space="preserve" width="43.1" height="43.1" xmlns="http://www.w3.org/2000/svg">
<g>
	<g>
		<path fill="#fff" d="M38.8,14.3c-0.2-0.2-0.5-0.4-0.8-0.4h-3.8c-0.9-2.5-2.2-4.9-3.5-5.8c-4.8-3.2-17.5-3.2-22.4,0C7,9,5.7,11.4,4.8,13.9H1
			c-0.3,0-0.6,0.1-0.8,0.4C0,14.5,0,14.8,0,15.1l0.6,2.7c0.1,0.5,0.5,0.8,1,0.8h1.1c-1.1,1.3-1.6,2.8-1.6,4.4c0,2,0.7,3.7,2.1,5
			c0,0,0,0,0,0v3.8c0,0.8,0.7,1.5,1.5,1.5h3.5c0.8,0,1.5-0.7,1.5-1.5v-1.5h19.6v1.5c0,0.8,0.7,1.5,1.5,1.5h3.5
			c0.8,0,1.5-0.7,1.5-1.5v-3.7c1.4-1.3,2.1-3.1,2.1-4.9c0-1.6-0.5-3.3-1.7-4.6h1.2c0.5,0,0.9-0.3,1-0.8l0.6-2.7
			C39.1,14.8,39,14.5,38.8,14.3z M10,10.6c3.8-2.5,15.2-2.5,19.1,0c0.7,0.5,1.7,2.5,2.6,4.9H7.4C8.3,13,9.3,11.1,10,10.6z M5.5,23.4
			c0-1.6,1.3-3,3-3c1.6,0,3,1.3,3,3s-1.3,3-3,3C6.8,26.4,5.5,25,5.5,23.4z M30.6,26.4c-1.6,0-3-1.3-3-3s1.3-3,3-3c1.6,0,3,1.3,3,3
			S32.3,26.4,30.6,26.4z"/>
	</g>
</g>
</svg><svg width="30" height="30" viewBox="-2 -2 30 30" id="clock" y="431.344" xmlns="http://www.w3.org/2000/svg">
  <defs>
    <style>.alcls-1{fill:#fff;fill-rule:evenodd;opacity:.52}</style>
  </defs>
  <path id="alclock" class="alcls-1" d="M596,1009a13,13,0,1,0,13,13A13.014,13.014,0,0,0,596,1009Zm0,24.38A11.375,11.375,0,1,1,607.375,1022,11.394,11.394,0,0,1,596,1033.38h0Zm0.812-19.5h-1.624v8.46l5.113,5.11,1.149-1.15-4.638-4.64v-7.78Z" transform="translate(-583 -1009)"/>
</svg><svg width="19.28" height="19.281" viewBox="-2 -2 19.28 19.281" id="close-brown" x="413.19399999999996" y="369.344" xmlns="http://www.w3.org/2000/svg">
  <defs>
    <style>.amcls-1{fill:#aa998b;fill-rule:evenodd}</style>
  </defs>
  <path class="amcls-1" d="M1806.9,210.5l5.96-5.958a0.99,0.99,0,0,0-1.4-1.4l-5.96,5.958-5.96-5.958a0.99,0.99,0,0,0-1.4,1.4l5.96,5.958-5.96,5.958a0.992,0.992,0,0,0,.7,1.693,0.972,0.972,0,0,0,.7-0.291l5.96-5.958,5.96,5.958a0.991,0.991,0,0,0,1.4-1.4Z" transform="translate(-1797.88 -202.875)"/>
</svg><svg width="13" height="13" viewBox="-2 -2 13 13" fill="none" id="close-white" x="483.876" y="218" xmlns="http://www.w3.org/2000/svg">
<path fill-rule="evenodd" clip-rule="evenodd" d="M5.24239 4.50056L8.39662 1.34633C8.60204 1.14144 8.60204 0.809503 8.39662 0.60462C8.19121 0.399209 7.8598 0.399209 7.65439 0.60462L4.50068 3.75886L1.34645 0.60462C1.14157 0.399209 0.809625 0.399209 0.604742 0.60462C0.399331 0.809503 0.399331 1.14144 0.604742 1.34633L3.75845 4.50056L0.604742 7.6548C0.399331 7.86021 0.399331 8.19215 0.604742 8.39703C0.706919 8.49921 0.84139 8.55109 0.97586 8.55109C1.1098 8.55109 1.24427 8.49921 1.34645 8.39703L4.50068 5.2428L7.65439 8.39703C7.7571 8.49921 7.89104 8.55109 8.02551 8.55109C8.15998 8.55109 8.29445 8.49921 8.39662 8.39703C8.60204 8.19215 8.60204 7.86021 8.39662 7.6548L5.24239 4.50056Z" fill="white"/>
</svg><svg width="30.13" height="23.437" viewBox="-2 -2 30.13 23.437" id="contacts-mail" x="236" y="369.344" xmlns="http://www.w3.org/2000/svg">
  <defs>
    <style>.aocls-1{fill:#c7c2b1;fill-rule:evenodd}</style>
  </defs>
  <path id="aocontacts-mail" class="aocls-1" d="M1306.21,573.618h-2.33c-3.26,0-6.53-.007-9.79-0.006a3.617,3.617,0,0,1-2.26-.658,3.2,3.2,0,0,1-1.26-2.424c-0.07-1.1-.06-2.206-0.06-3.31-0.01-2.4,0-4.8,0-7.2a3.592,3.592,0,0,1,.6-2.07c2.96,2.654,5.96,5.258,8.94,7.882,0.21,0.189.43,0.376,0.65,0.567a3.641,3.641,0,0,0,5.03,0q4.41-3.88,8.82-7.752c0.26-.229.55-0.433,0.81-0.642a2.858,2.858,0,0,1,.54,1.635c0.03,2.111.01,4.224,0.01,6.353a0.278,0.278,0,0,1-.09-0.036,6.889,6.889,0,0,0-4.45-1,6.117,6.117,0,0,0-2.55.674,5.356,5.356,0,0,0-2.82,4.088A9.512,9.512,0,0,0,1306.21,573.618Zm-2.99-17.144c2.5,0,4.99-.006,7.49,0,0.81,0,1.63.038,2.45,0.073a1.356,1.356,0,0,1,.47.129c0.29,0.134.31,0.292,0.07,0.511-0.41.374-.83,0.739-1.25,1.106q-3.87,3.4-7.73,6.8a2.042,2.042,0,0,1-3.01,0q-4.35-3.834-8.71-7.664c-0.11-.092-0.21-0.182-0.31-0.283-0.18-.19-0.17-0.36.08-0.442a3.524,3.524,0,0,1,1.03-.2c1.43-.026,2.85-0.019,4.28-0.02,1.71,0,3.43,0,5.14,0v-0.009Zm10.31,19.346a9.453,9.453,0,0,1-3.56-.121,3.317,3.317,0,0,1-2.51-2.554,7.137,7.137,0,0,1,.01-3.889,3.927,3.927,0,0,1,3.29-2.889,6.8,6.8,0,0,1,2.95.087,3.518,3.518,0,0,1,2.78,3.11,6.317,6.317,0,0,1-.05,2.562,1.835,1.835,0,0,1-3,1.187,0.405,0.405,0,0,0-.51-0.019,2.6,2.6,0,0,1-1.3.415,1.618,1.618,0,0,1-1.74-1.361,5.825,5.825,0,0,1,.04-2.561,1.431,1.431,0,0,1,1.51-1.184c0.73,0,1.46.035,2.19,0.066,0.32,0.013.39,0.094,0.39,0.423,0.03,1,.05,2,0.07,3a0.464,0.464,0,0,0,.41.52,0.519,0.519,0,0,0,.55-0.386,0.2,0.2,0,0,0,.02-0.074,6.865,6.865,0,0,0,0-2.819,2.29,2.29,0,0,0-1.84-1.808,5.025,5.025,0,0,0-2.15-.048,2.94,2.94,0,0,0-2.46,2.5,5.748,5.748,0,0,0,.16,2.91,2.409,2.409,0,0,0,2.3,1.764c0.7,0.025,1.4.014,2.11,0,0.19,0,.28.043,0.28,0.255C1313.47,575.206,1313.51,575.5,1313.53,575.82Zm-0.78-4.732h0c0-.286,0-0.573-0.01-0.859a0.507,0.507,0,0,0-.28-0.516,1.008,1.008,0,0,0-1.22.606,3.267,3.267,0,0,0,.01,1.523,0.748,0.748,0,0,0,1.18.563,0.463,0.463,0,0,0,.32-0.483v-0.834Z" transform="translate(-1290.5 -556.469)"/>
</svg><svg width="20.31" height="26.906" viewBox="-2 -2 20.31 26.906" id="contacts-mark" x="113.656" y="431.344" xmlns="http://www.w3.org/2000/svg">
  <defs>
    <style>.apcls-1{fill:#c7c2b1;fill-rule:evenodd}</style>
  </defs>
  <path id="apcontacts-mark" class="apcls-1" d="M1304.91,654.841h-0.06a8.8,8.8,0,0,1-1.05-.749,20.209,20.209,0,0,1-2.75-3.45,30.451,30.451,0,0,1-3.85-7.66,8.823,8.823,0,0,1-.35-4.47A8.15,8.15,0,0,1,1313,639.88a10.171,10.171,0,0,1-.61,3.461,32.4,32.4,0,0,1-5.62,9.819A5.741,5.741,0,0,1,1304.91,654.841Zm-0.07-10.157a4.625,4.625,0,1,0-4.6-4.637A4.623,4.623,0,0,0,1304.84,644.684Z" transform="translate(-1296.69 -631.938)"/>
</svg><svg width="23" height="22.969" viewBox="-2 -2 23 22.969" id="contacts-phone" x="289.13" y="369.344" xmlns="http://www.w3.org/2000/svg">
  <defs>
    <style>.aqcls-1{fill:#c7c2b1;fill-rule:evenodd}</style>
  </defs>
  <path id="aqcontacts-phone" class="aqcls-1" d="M1297.87,485.7a7.745,7.745,0,0,1-2.32-4.348,0.681,0.681,0,0,1,.19-0.544l1.47-1.465a0.664,0.664,0,0,0,.09-0.81l-2.34-3.624a0.643,0.643,0,0,0-.84-0.238l-3.76,1.764a0.669,0.669,0,0,0-.36.65,19.586,19.586,0,0,0,16.49,16.469,0.656,0.656,0,0,0,.66-0.36l1.76-3.746a0.658,0.658,0,0,0-.23-0.847l-3.63-2.333a0.655,0.655,0,0,0-.81.092l-1.47,1.466a0.66,0.66,0,0,1-.55.186,7.672,7.672,0,0,1-4.35-2.312h0Zm7.2-.976a0.651,0.651,0,0,1-.65-0.654,4.929,4.929,0,0,0-4.92-4.908,0.654,0.654,0,0,1,0-1.308,6.233,6.233,0,0,1,6.23,6.216A0.66,0.66,0,0,1,1305.07,484.724Zm3.28,0a0.66,0.66,0,0,1-.66-0.654,8.191,8.191,0,0,0-8.19-8.179,0.655,0.655,0,0,1,0-1.309,9.5,9.5,0,0,1,9.5,9.488,0.662,0.662,0,0,1-.19.462A0.649,0.649,0,0,1,1308.35,484.724Z" transform="translate(-1290 -474.594)"/>
</svg><svg id="design" width="62" height="62" viewBox="-2 -2 62 62" x="62" y="369.344" xmlns="http://www.w3.org/2000/svg">
  <defs>
    <style>.arcls-1{fill:#c8bab3;opacity:.3}.arcls-2{fill:#fff;fill-rule:evenodd}</style>
  </defs>
  <circle id="arEllipse_1_copy_5" data-name="Ellipse 1 copy 5" class="arcls-1" cx="29" cy="29" r="29"/>
  <path class="arcls-2" d="M1707.96,522.3l-1.09-1.106,3.66-3.722-6.91-7.028,3.1-3.151,1.35,1.375-2.12,2.156,10.76,10.947,5.44-5.533-10.76-10.946-2.12,2.156-2.55-2.595-5.5,5.591,6.91,7.028-2.46,2.5-1.08-1.106-6.74,6.853,3.37,3.432Zm12.02-6.062-3.27,3.329-8.59-8.743,3.27-3.328Zm-18.76,10.475-0.97-.992,4.34-4.413,0.97,0.993Z" transform="translate(-1680 -488)"/>
</svg><svg width="45.875" height="53.781" viewBox="-2 -2 45.875 53.781" id="doc-icon" x="471" y="104" xmlns="http://www.w3.org/2000/svg">
  <defs>
    <style>.ascls-1{fill:#c7c2b1;fill-rule:evenodd}</style>
  </defs>
  <path class="ascls-1" d="M488.176,489.837H507.64c0.007,0.178.019,0.355,0.02,0.533q0.034,5.178.066,10.356a2.918,2.918,0,0,0,3.034,3.023c3.438,0.011,6.876,0,10.315.006h0.585v0.465q0,13.2-.006,26.4a3.11,3.11,0,0,1-.057.675,3.031,3.031,0,0,1-3.176,2.381q-14.67,0-29.339,0a3.08,3.08,0,0,1-3.329-3.378q0.007-11.45,0-22.9,0-7.2,0-14.391a2.991,2.991,0,0,1,1.3-2.629A7.8,7.8,0,0,1,488.176,489.837Zm13.557,32.444c-0.208-.2-0.325-0.3-0.437-0.413q-1.858-1.854-3.715-3.709a1,1,0,0,0-1.533-.105,0.99,0.99,0,0,0,.139,1.5q2.834,2.838,5.673,5.67a1.045,1.045,0,0,0,1.717.008q1.553-1.542,3.1-3.092c0.894-.893,1.8-1.778,2.678-2.684a0.971,0.971,0,0,0-.32-1.658,1.025,1.025,0,0,0-1.135.334q-1.868,1.879-3.747,3.747c-0.117.116-.239,0.225-0.416,0.391-0.011-.222-0.021-0.334-0.021-0.446q0-5.759,0-11.517c0-.55.018-1.1-0.028-1.65a0.913,0.913,0,0,0-1.079-.856,1,1,0,0,0-.868,1.2c0,2.4,0,4.8,0,7.192v6.1ZM483.8,495.786v3.55q0,16.017,0,32.033a4.021,4.021,0,0,0,4.295,4.273q13.62-.008,27.241,0h0.283a3.1,3.1,0,0,1-2.938,3.985q-14.886,0-29.771,0a2.956,2.956,0,0,1-3.1-3.116q-0.006-8.774,0-17.547c0-6.611.04-13.222-.021-19.832a3.152,3.152,0,0,1,3.407-3.347C483.362,495.794,483.539,495.786,483.8,495.786Zm25.868-5.195,11.292,11.179c-0.24.012-.407,0.027-0.574,0.027q-4.788,0-9.576,0a1,1,0,0,1-1.123-1.051q-0.029-4.929-.045-9.86C509.64,490.776,509.659,490.668,509.666,490.591Z" transform="translate(-479.781 -489.844)"/>
</svg><svg id="fav" width="62" height="62" viewBox="-2 -2 62 62" x="124" y="369.344" xmlns="http://www.w3.org/2000/svg">
  <defs>
    <style>.atcls-1{fill:#c8bab3;opacity:.3}.atcls-2{fill:#fff;fill-rule:evenodd}</style>
  </defs>
  <circle id="atEllipse_1_copy_4" data-name="Ellipse 1 copy 4" class="atcls-1" cx="29" cy="29" r="29"/>
  <path class="atcls-2" d="M1719.2,598.4a1.875,1.875,0,0,0-1.81-1.314H1712l-1.7-5.178a1.87,1.87,0,0,0-1.8-1.309h-0.01a1.872,1.872,0,0,0-1.8,1.323l-1.65,5.164h-5.44a1.9,1.9,0,0,0-1.11,3.449l4.4,3.193-1.7,5.164A1.921,1.921,0,0,0,1703,611.4a1.9,1.9,0,0,0,1.11-.368l4.41-3.2,4.36,3.193a1.9,1.9,0,0,0,2.92-2.12l-1.65-5.178,4.36-3.2a1.876,1.876,0,0,0,.69-2.129h0Zm-1.43,1.1-5.1,3.739,1.93,6.05a0.635,0.635,0,0,1-.98.707l-5.1-3.737L1703.37,610a0.631,0.631,0,0,1-.97-0.713l1.98-6.046-5.15-3.737a0.636,0.636,0,0,1,.37-1.15h6.36l1.93-6.046a0.618,0.618,0,0,1,.6-0.441h0.01a0.61,0.61,0,0,1,.6.436l1.98,6.051h6.31a0.635,0.635,0,0,1,.38,1.148h0Z" transform="translate(-1680 -572)"/>
</svg><svg width="21.875" height="21.188" viewBox="-2 -2 21.875 21.188" id="fav-star" x="128.688" y="347" xmlns="http://www.w3.org/2000/svg">
  <defs>
    <style>.aucls-1{fill:#fff;fill-rule:evenodd}</style>
  </defs>
  <path id="auShape_15_copy_2" data-name="Shape 15 copy 2" class="aucls-1" d="M865.428,537.853a1.546,1.546,0,0,0-1.491-1.086h-4.459l-1.4-4.279a1.546,1.546,0,0,0-1.489-1.082h-0.007a1.545,1.545,0,0,0-1.487,1.094l-1.363,4.267h-4.5a1.575,1.575,0,0,0-.919,2.849l3.638,2.639-1.4,4.267a1.565,1.565,0,0,0,2.408,1.768l3.644-2.643,3.6,2.638a1.57,1.57,0,0,0,2.419-1.752l-1.367-4.278,3.607-2.643a1.555,1.555,0,0,0,.566-1.759h0Zm-1.183.911-4.216,3.09,1.6,5a0.524,0.524,0,0,1-.806.584l-4.214-3.088-4.259,3.089a0.523,0.523,0,0,1-.8-0.589l1.639-5-4.257-3.088a0.525,0.525,0,0,1,.306-0.95h5.259l1.6-5a0.5,0.5,0,0,1,.5-0.364h0a0.508,0.508,0,0,1,.5.36l1.641,5h5.215a0.525,0.525,0,0,1,.308.948h0Z" transform="translate(-847.656 -531.406)"/>
</svg><svg version="1.1" id="fav-white" y="369.344" viewBox="-2 -2 62 62" enable-background="new 0 0 58 58" xml:space="preserve" width="62" height="62" xmlns="http://www.w3.org/2000/svg">
<circle id="avEllipse_1_copy_4" opacity="0.3" fill="#C8BAB3" enable-background="new    " cx="29" cy="29" r="29"/>
<path fill-rule="evenodd" clip-rule="evenodd" fill="#FFFFFF" d="M39.19995,26.40002
	c-0.24744-0.78931-0.98291-1.32324-1.81006-1.31403H32l-1.69995-5.17798c-0.2467-0.78479-0.97742-1.3161-1.80005-1.30902h-0.01001
	c-0.82629-0.00458-1.55774,0.53308-1.80005,1.323l-1.65002,5.164h-5.43994c-1.04932-0.00537-1.9043,0.84094-1.90967,1.89026
	c-0.00317,0.61877,0.29517,1.20038,0.79968,1.55872l4.40002,3.19299l-1.69995,5.164
	c-0.32422,1.01019,0.23169,2.09192,1.24194,2.4162C22.6156,39.36713,22.80713,39.39813,23,39.40002
	c0.39954-0.00293,0.78784-0.13165,1.10999-0.36798l4.41003-3.20001L32.88,39.02502c0.85156,0.6131,2.03894,0.41974,2.6521-0.43188
	c0.35168-0.48846,0.45105-1.11475,0.26794-1.68811l-1.65002-5.17798l4.35999-3.20001
	c0.67444-0.4798,0.95483-1.34485,0.68994-2.12903l0,0V26.40002z"/>
</svg><svg width="28.563" height="28.562" viewBox="-2 -2 28.563 28.562" id="fb" x="40.18" y="461.344" xmlns="http://www.w3.org/2000/svg">
  <defs>
    <style>.awcls-1{fill:#fff;fill-rule:evenodd}</style>
  </defs>
  <path id="awfb" class="awcls-1" d="M94.288,861A12.288,12.288,0,1,0,82,873.288,12.288,12.288,0,0,0,94.288,861ZM78.7,861v-2.352h1.441v-1.422c0-1.918.573-3.3,2.673-3.3h2.5v2.345H83.554a1.014,1.014,0,0,0-1.081,1.2v1.177h2.71L84.813,861h-2.34v7.092H80.141V861H78.7Z" transform="translate(-69.719 -848.719)"/>
</svg><svg width="17" height="20" viewBox="-2 -2 17 20" id="flat-arrow-bottom" x="376.756" y="369.344" xmlns="http://www.w3.org/2000/svg">
  <defs>
    <style>.axcls-1{fill:#fff;fill-rule:evenodd}</style>
  </defs>
  <path id="axflat-arrow-bottom" class="axcls-1" d="M744.273,984.9l0-.025v10.707l-3.3-3.366a0.851,0.851,0,0,0-1.215,0l-0.513.524a0.89,0.89,0,0,0,0,1.237l5.643,5.769a0.85,0.85,0,0,0,1.214,0l5.643-5.769a0.89,0.89,0,0,0,0-1.237l-0.512-.524a0.843,0.843,0,0,0-.605-0.255,0.816,0.816,0,0,0-.593.255l-3.318,3.4V984.887a0.9,0.9,0,0,0-.878-0.887h-0.725A0.88,0.88,0,0,0,744.273,984.9Z" transform="translate(-739 -984)"/>
</svg><svg width="20" height="17" viewBox="-2 -2 20 17" id="flat-arrow-left" x="225.873" y="347" xmlns="http://www.w3.org/2000/svg">
  <defs>
    <style>.aycls-1{fill:#fff;fill-rule:evenodd}</style>
  </defs>
  <path id="ayflat-arrow-left" class="aycls-1" d="M438.1,855.727l0.025,0H427.419l3.366,3.3a0.851,0.851,0,0,1,0,1.215l-0.524.513a0.89,0.89,0,0,1-1.237,0l-5.769-5.643a0.85,0.85,0,0,1,0-1.214l5.769-5.643a0.89,0.89,0,0,1,1.237,0l0.524,0.512a0.843,0.843,0,0,1,.255.605,0.816,0.816,0,0,1-.255.593l-3.4,3.318h10.732a0.9,0.9,0,0,1,.887.878v0.725A0.88,0.88,0,0,1,438.1,855.727Z" transform="translate(-423 -848)"/>
</svg><svg width="20" height="17" viewBox="-2 -2 20 17" id="flat-arrow-right" x="491" y="306.1" xmlns="http://www.w3.org/2000/svg">
  <defs>
    <style>.azcls-1{fill:#fff;fill-rule:evenodd}</style>
  </defs>
  <path id="azflat-arrow-right" class="azcls-1" d="M488.9,855.727l-0.025,0h10.707l-3.366,3.3a0.851,0.851,0,0,0,0,1.215l0.524,0.513a0.89,0.89,0,0,0,1.237,0l5.769-5.643a0.85,0.85,0,0,0,0-1.214l-5.769-5.643a0.89,0.89,0,0,0-1.237,0l-0.524.512a0.843,0.843,0,0,0-.255.605,0.816,0.816,0,0,0,.255.593l3.4,3.318H488.887a0.9,0.9,0,0,0-.887.878v0.725A0.88,0.88,0,0,0,488.9,855.727Z" transform="translate(-488 -848)"/>
</svg><svg width="17" height="20" viewBox="-2 -2 17 20" id="flat-arrow-top" x="168.873" y="347" xmlns="http://www.w3.org/2000/svg">
  <defs>
    <style>.bacls-1{fill:#fff;fill-rule:evenodd}</style>
  </defs>
  <path id="baflat-arrow-top" class="bacls-1" d="M744.273,861.1l0,0.025V850.419l-3.3,3.366a0.851,0.851,0,0,1-1.215,0l-0.513-.524a0.89,0.89,0,0,1,0-1.237l5.643-5.769a0.85,0.85,0,0,1,1.214,0l5.643,5.769a0.89,0.89,0,0,1,0,1.237l-0.512.524a0.843,0.843,0,0,1-.605.255,0.816,0.816,0,0,1-.593-0.255l-3.318-3.4v10.732a0.9,0.9,0,0,1-.878.887h-0.725A0.88,0.88,0,0,1,744.273,861.1Z" transform="translate(-739 -846)"/>
</svg><svg width="13.03" height="19.281" viewBox="-2 -2 13.03 19.281" id="gallery_arrow" x="432.47399999999993" y="369.344" xmlns="http://www.w3.org/2000/svg">
  <defs>
    <style>.bbcls-1{fill:#fff;fill-rule:evenodd}</style>
  </defs>
  <path id="bbShape_9_copy" data-name="Shape 9 copy" class="bbcls-1" d="M1517.9,598.5l-1.4-1.4-5.96-5.958a0.99,0.99,0,0,0-1.4,1.4l5.96,5.958-5.96,5.958a0.992,0.992,0,0,0,.7,1.693,0.972,0.972,0,0,0,.7-0.291l5.96-5.958Z" transform="translate(-1508.88 -590.875)"/>
</svg><svg width="22.22" height="25.594" viewBox="-2 -2 22.22 25.594" id="garbage" x="133.966" y="431.344" xmlns="http://www.w3.org/2000/svg">
  <defs>
    <style>.bccls-1{fill:#fff;fill-rule:evenodd}</style>
  </defs>
  <path id="bcdelete_icon" data-name="delete icon" class="bccls-1" d="M1799.93,383.546v-5.914a0.833,0.833,0,0,1,.71-0.88,0.8,0.8,0,0,1,.9.538,1.5,1.5,0,0,1,.05.562V388.8a1,1,0,0,0,1.24,1.227q4.59,0,9.18,0a0.981,0.981,0,0,0,1.2-1.207V377.976a3.622,3.622,0,0,1,.01-0.466,0.809,0.809,0,0,1,.82-0.764,0.839,0.839,0,0,1,.83.766,2.184,2.184,0,0,1,.01.362v11.154a2.533,2.533,0,0,1-2.67,2.663c-3.22,0-6.43,0-9.65,0a2.52,2.52,0,0,1-2.63-2.645v-5.5Zm3.32-10.121V371.12a0.85,0.85,0,0,1,.99-1.016q3.165,0,6.33,0a0.853,0.853,0,0,1,.99,1.014v2.306h0.51c1.18,0,2.35,0,3.53,0a0.848,0.848,0,0,1,.92.888,0.806,0.806,0,0,1-.92.771q-8.19,0-16.39,0a0.864,0.864,0,0,1-.92-0.895,0.8,0.8,0,0,1,.92-0.764C1800.54,373.423,1801.86,373.425,1803.25,373.425Zm6.62-1.634h-4.92v1.6h4.92v-1.6Zm-3.28,10.776v3.21a0.829,0.829,0,0,1-.83.922,0.817,0.817,0,0,1-.84-0.9q-0.015-3.236,0-6.471a0.823,0.823,0,0,1,.83-0.917,0.8,0.8,0,0,1,.84.9C1806.6,380.393,1806.59,381.48,1806.59,382.567Zm1.62-.039c0-1.052,0-2.105.01-3.157a0.817,0.817,0,0,1,.83-0.964,0.834,0.834,0,0,1,.84.955v6.419a0.842,0.842,0,0,1-.84.918,0.808,0.808,0,0,1-.83-0.91C1808.21,384.7,1808.21,383.615,1808.21,382.528Z" transform="translate(-1798.28 -370.094)"/>
</svg><svg width="19.125" height="21.906" viewBox="-2 -2 19.125 21.906" id="garbage-fav" x="109.563" y="347" xmlns="http://www.w3.org/2000/svg">
  <defs>
    <style>.bdcls-1{fill:#fff;fill-rule:evenodd;opacity:.5;filter:url(#bdfilter)}</style>
    <filter id="bdfilter" x="379.844" y="873.938" width="15.125" height="17.906" filterUnits="userSpaceOnUse">
      <feFlood result="flood" flood-color="#fff"/>
      <feComposite result="composite" operator="in" in2="SourceGraphic"/>
      <feBlend result="blend" in2="SourceGraphic"/>
    </filter>
  </defs>
  <path id="bddelete_icon" data-name="delete icon" class="bdcls-1" d="M381.207,885.092c0-1.634,0-3.268,0-4.9a0.68,0.68,0,0,1,.584-0.729,0.666,0.666,0,0,1,.749.446,1.332,1.332,0,0,1,.04.466q0,4.538,0,9.074a0.823,0.823,0,0,0,1.023,1.016q3.805,0,7.612,0a0.815,0.815,0,0,0,1-1v-8.988a3.84,3.84,0,0,1,0-.387,0.673,0.673,0,0,1,.682-0.634,0.7,0.7,0,0,1,.688.636,2.726,2.726,0,0,1,0,.3q0,4.623,0,9.246a2.1,2.1,0,0,1-2.212,2.208q-4,0-8,0a2.087,2.087,0,0,1-2.179-2.193Q381.2,887.372,381.207,885.092Zm2.753-8.39c0-.681,0-1.3,0-1.911a0.7,0.7,0,0,1,.818-0.842q2.623,0,5.246,0a0.705,0.705,0,0,1,.82.841c0,0.615,0,1.231,0,1.912h0.427c0.975,0,1.949,0,2.924,0a0.7,0.7,0,0,1,.76.735,0.665,0.665,0,0,1-.757.64q-6.795,0-13.588,0a0.712,0.712,0,0,1-.76-0.742,0.656,0.656,0,0,1,.758-0.633C381.708,876.7,382.809,876.7,383.96,876.7Zm5.485-1.355h-4.08v1.324h4.08v-1.324Zm-2.719,8.933c0,0.887,0,1.774,0,2.661a0.694,0.694,0,1,1-1.382.015q-0.007-2.682,0-5.364a0.682,0.682,0,0,1,.687-0.761,0.664,0.664,0,0,1,.694.746C386.731,882.478,386.725,883.379,386.726,884.28Zm1.347-.032c0-.872,0-1.745,0-2.617a0.682,0.682,0,0,1,.687-0.8,0.692,0.692,0,0,1,.7.792q0.006,2.661,0,5.321a0.7,0.7,0,0,1-.7.761,0.671,0.671,0,0,1-.69-0.753C388.067,886.05,388.074,885.149,388.073,884.248Z" transform="translate(-379.844 -873.938)"/>
</svg><svg version="1.1" id="help-scroll" x="97.30499999999999" y="461.344" width="20.5" height="28.2" viewBox="-2 -2 20.5 28.2" style="enable-background:new 0 0 16.5 24.2;" xml:space="preserve" xmlns="http://www.w3.org/2000/svg">
<style type="text/css">.best0{fill-rule:evenodd;clip-rule:evenodd;fill:#fff}</style>
<path id="behelp-scroll" class="best0" d="M8.3,0C3.6,0.1-0.1,4,0,8.6v6.9c-0.2,4.6,3.3,8.4,7.9,8.6c4.6,0.2,8.4-3.3,8.6-7.9
	c0-0.3,0-0.5,0-0.8V8.6C16.6,4,12.9,0.1,8.3,0z M14.9,15.6c0.2,3.7-2.7,6.8-6.4,7c-3.7,0.2-6.8-2.7-7-6.4c0-0.2,0-0.4,0-0.7V8.6
	c-0.2-3.7,2.7-6.9,6.4-7s6.9,2.7,7,6.4c0,0.2,0,0.5,0,0.7V15.6L14.9,15.6z"/>
</svg><svg width="18" height="35" viewBox="-2 -2 18 35" id="hotspot" x="186" y="369.344" xmlns="http://www.w3.org/2000/svg">
  <defs>
    <style>.bfcls-1{fill:#f2f1f3;fill-rule:evenodd}</style>
  </defs>
  <path class="bfcls-1" d="M735.394,721.572h1.4l1.458,8.088a1.378,1.378,0,0,0,1.4,1.348h2.691a1.378,1.378,0,0,0,1.4-1.348l1.458-8.088h1.4a1.379,1.379,0,0,0,1.4-1.349v-8.088c0-.69-1.125-2.2-3.079-2.423a25.645,25.645,0,0,0-3.908-.252,26.016,26.016,0,0,0-3.953.252c-1.952.22-3.077,1.735-3.077,2.423v8.088A1.379,1.379,0,0,0,735.394,721.572ZM741,708.09a4.047,4.047,0,1,0-4.205-4.043A4.128,4.128,0,0,0,741,708.09Z" transform="translate(-734 -700)"/>
</svg><svg width="28.562" height="28.562" viewBox="-2 -2 28.562 28.562" id="insta" x="68.743" y="461.344" xmlns="http://www.w3.org/2000/svg">
  <defs>
    <style>.bgcls-1{fill:#fff;fill-rule:evenodd}</style>
  </defs>
  <path id="bginsta" class="bgcls-1" d="M118,863.46a2.456,2.456,0,1,0-2.459-2.46A2.464,2.464,0,0,0,118,863.46Zm5.371-5.469v-2.369h-0.308l-2.061.006L121.01,858ZM118,848.712A12.288,12.288,0,1,0,130.288,861,12.3,12.3,0,0,0,118,848.712Zm6.988,10.854v5.722a2.7,2.7,0,0,1-2.7,2.7h-8.574a2.7,2.7,0,0,1-2.7-2.7v-8.575a2.7,2.7,0,0,1,2.7-2.7h8.574a2.7,2.7,0,0,1,2.7,2.7v2.853ZM121.823,861a3.823,3.823,0,1,1-7.364-1.434h-2.086v5.722a1.339,1.339,0,0,0,1.339,1.338h8.574a1.34,1.34,0,0,0,1.34-1.338v-5.722h-2.087A3.784,3.784,0,0,1,121.823,861Z" transform="translate(-105.719 -848.719)"/>
</svg><svg id="interiors" width="62" height="62" viewBox="-2 -2 62 62" x="409" y="263" xmlns="http://www.w3.org/2000/svg">
  <defs>
    <style>.bhcls-1{fill:#c8bab3;opacity:.3}.bhcls-2{fill:#fff;fill-rule:evenodd}</style>
  </defs>
  <circle id="bhEllipse_1_copy_6" data-name="Ellipse 1 copy 6" class="bhcls-1" cx="29" cy="29" r="29"/>
  <path class="bhcls-2" d="M1720.22,429.269h-1.56v-4.846a2.386,2.386,0,0,0-2.35-2.423h-15.62a2.386,2.386,0,0,0-2.35,2.423v4.846h-1.56a0.8,0.8,0,0,0-.78.808v8.077a2.384,2.384,0,0,0,2.34,2.423v1.615a0.8,0.8,0,0,0,.79.808h1.56a0.8,0.8,0,0,0,.78-0.808v-1.615h14.06v1.615a0.8,0.8,0,0,0,.78.808h1.57a0.8,0.8,0,0,0,.78-0.808v-1.615a2.384,2.384,0,0,0,2.34-2.423v-8.077A0.8,0.8,0,0,0,1720.22,429.269Zm-19.53,8.885a0.8,0.8,0,0,1-.78.808h-1.57a0.8,0.8,0,0,1-.78-0.808v-7.269h2.35a0.794,0.794,0,0,1,.78.807v6.462Zm1.42,0.808a2.474,2.474,0,0,0,.14-0.808v-2.423h12.5v2.423a2.474,2.474,0,0,0,.14.808h-12.78Zm12.64-7.27v2.423h-12.5v-2.423a2.384,2.384,0,0,0-2.34-2.423v-4.846a0.8,0.8,0,0,1,.78-0.808h15.62a0.8,0.8,0,0,1,.78.808v4.846A2.384,2.384,0,0,0,1714.75,431.692Zm4.69,6.462a0.8,0.8,0,0,1-.78.808h-1.57a0.8,0.8,0,0,1-.78-0.808v-6.462a0.794,0.794,0,0,1,.78-0.807h2.35v7.269Z" transform="translate(-1680 -404)"/>
</svg><svg width="25.563" height="22.16" viewBox="-2 -2 25.563 22.16" id="interiors-m" x="84" y="347" xmlns="http://www.w3.org/2000/svg">
  <defs>
    <style>.bicls-1{fill:#fff;fill-rule:evenodd}</style>
  </defs>
  <path id="biinteriors-m" class="bicls-1" d="M119.31,1463.63h-1.349v-4.18a2.054,2.054,0,0,0-2.024-2.09H102.446a2.054,2.054,0,0,0-2.023,2.09v4.18h-1.35a0.692,0.692,0,0,0-.674.7v6.97a2.063,2.063,0,0,0,2.024,2.1v1.39a0.685,0.685,0,0,0,.674.7h1.349a0.686,0.686,0,0,0,.675-0.7v-1.39h12.142v1.39a0.685,0.685,0,0,0,.674.7h1.349a0.686,0.686,0,0,0,.675-0.7v-1.39a2.063,2.063,0,0,0,2.023-2.1v-6.97A0.692,0.692,0,0,0,119.31,1463.63Zm-16.864,7.67a0.685,0.685,0,0,1-.674.7h-1.349a0.686,0.686,0,0,1-.675-0.7v-6.27h2.024a0.685,0.685,0,0,1,.674.7v5.57Zm1.228,0.7a2.163,2.163,0,0,0,.121-0.7v-2.09h10.793v2.09a2.163,2.163,0,0,0,.121.7H103.674Zm10.914-6.27v2.09H103.8v-2.09a2.063,2.063,0,0,0-2.023-2.1v-4.18a0.685,0.685,0,0,1,.674-0.7h13.491a0.686,0.686,0,0,1,.675.7v4.18A2.063,2.063,0,0,0,114.588,1465.73Zm4.047,5.57a0.685,0.685,0,0,1-.674.7h-1.349a0.686,0.686,0,0,1-.675-0.7v-5.57a0.686,0.686,0,0,1,.675-0.7h2.023v6.27Z" transform="translate(-98.406 -1457.34)"/>
</svg><svg version="1.1" id="logo-brown" x="273" y="52" viewBox="-2 -2 244.8 52" style="enable-background:new 0 0 240.8 48;" xml:space="preserve" width="244.8" height="52" xmlns="http://www.w3.org/2000/svg">
<style type="text/css">.bjst0{display:none;fill-rule:evenodd;clip-rule:evenodd;fill:#aa998b}.bjst1{fill:#aa998b}</style>
<path id="bjLOGO" class="bjst0" d="M60.2,41.6H61v5.6H64v0.7h-3.8L60.2,41.6L60.2,41.6z M67.1,41.6h0.8v6.3h-0.8
	C67.1,47.9,67.1,41.6,67.1,41.6z M71.7,41.6h3.5v0.7h-2.8v2.2h2.5v0.7h-2.5v2.6h-0.8C71.7,47.9,71.7,41.6,71.7,41.6z M78.3,41.6h3.5
	v0.7H79v2h2.5v0.7H79v2.1h2.9v0.7h-3.6V41.6L78.3,41.6z M85.2,46.9c0.3,0,0.5,0.2,0.5,0.5c0,0.3-0.2,0.5-0.5,0.5c0,0,0,0,0,0
	c-0.3,0-0.5-0.2-0.5-0.5c0,0,0,0,0,0C84.7,47.2,84.9,46.9,85.2,46.9L85.2,46.9z M96.4,45.1H93v2.8h-0.8v-6.3H93v2.7h3.4v-2.7h0.8
	v6.3h-0.8L96.4,45.1L96.4,45.1z M100.9,41.6h3.5v0.7h-2.8v2h2.5v0.7h-2.5v2.1h2.9v0.7h-3.6V41.6L100.9,41.6z M107.8,41.6h0.8v5.6
	h3.1v0.7h-3.8L107.8,41.6L107.8,41.6z M112.6,41.6h5.1v0.7h-2.2v5.6h-0.8v-5.6h-2.2L112.6,41.6L112.6,41.6z M124.8,45.1h-3.4v2.8
	h-0.8v-6.3h0.8v2.7h3.4v-2.7h0.8v6.3h-0.8V45.1z M129.2,46.9c0.3,0,0.5,0.2,0.5,0.5c0,0.3-0.2,0.5-0.5,0.5c0,0,0,0,0,0
	c-0.3,0-0.5-0.2-0.5-0.5c0,0,0,0,0,0C128.7,47.2,129,46.9,129.2,46.9L129.2,46.9z M136.3,47.9v-6.3c0.3,0,1.5,0,1.7,0
	c1.7,0,2.2,0.9,2.2,1.9c0,0.8-0.5,1.6-1.4,1.8l2.1,2.7H140l-1.9-2.5h-1v2.5H136.3L136.3,47.9z M137,42.3v2.3h0.9
	c0.7,0.1,1.3-0.5,1.4-1.2c0,0,0,0,0,0c0-0.6-0.4-1.2-1.5-1.2C137.7,42.3,137.3,42.3,137,42.3L137,42.3z M143.8,41.6h3.5v0.7h-2.8v2
	h2.5v0.7h-2.5v2.1h2.9v0.7h-3.6L143.8,41.6L143.8,41.6z M150.4,43.2c0-0.9,0.8-1.7,1.7-1.7c0.1,0,0.1,0,0.2,0c0.6,0,1.3,0.2,1.7,0.7
	l-0.4,0.6c-0.3-0.3-0.8-0.5-1.3-0.5c-0.5-0.1-1,0.3-1.1,0.8c0,0,0,0.1,0,0.1c0,1.6,3.1,1,3.1,3.1c-0.1,1-0.9,1.8-1.9,1.7
	c0,0-0.1,0-0.1,0c-0.8,0-1.5-0.3-2-0.9l0.4-0.5c0.4,0.5,0.9,0.7,1.5,0.7c0.6,0.1,1.1-0.3,1.2-0.9c0,0,0,0,0-0.1
	C153.4,44.8,150.4,45.3,150.4,43.2L150.4,43.2z M160.1,41.5c1.8,0,3.2,1.4,3.3,3.2c0,1.8-1.4,3.2-3.2,3.3c-1.8,0-3.2-1.4-3.3-3.2
	c0,0,0,0,0,0c-0.1-1.7,1.3-3.2,3-3.2C159.9,41.5,160,41.5,160.1,41.5L160.1,41.5z M160.1,47.3c1.3,0,2.4-1,2.4-2.3
	c0-0.1,0-0.1,0-0.2c-0.1-1.3-1.2-2.3-2.5-2.3s-2.3,1.2-2.3,2.5C157.8,46.3,158.8,47.3,160.1,47.3L160.1,47.3z M166.4,47.9v-6.3
	c0.3,0,1.5,0,1.7,0c1.7,0,2.2,0.9,2.2,1.9c0,0.8-0.5,1.6-1.3,1.8l2.1,2.7h-0.9l-1.9-2.5h-1v2.5H166.4z M167.2,42.3v2.3h0.9
	c0.7,0.1,1.3-0.5,1.4-1.2c0,0,0,0,0,0c0-0.6-0.4-1.2-1.5-1.2C167.9,42.3,167.5,42.3,167.2,42.3L167.2,42.3z M172.7,41.6h5.1v0.7
	h-2.2v5.6h-0.8v-5.6h-2.2V41.6z M180.1,46.9c0.3,0,0.5,0.2,0.5,0.5c0,0.3-0.2,0.5-0.5,0.5c0,0,0,0,0,0c-0.3,0-0.5-0.2-0.5-0.5
	c0,0,0,0,0,0C179.6,47.2,179.8,46.9,180.1,46.9L180.1,46.9z M53.1,10.3c0.1-5.3,3.3-9.5,7.4-9.8l0,0c4.6-0.4,8.7,4,9.3,9.8l0,0.1H73
	l0-0.3c-0.2-3.1-1.7-5.9-4.1-7.8c-2.4-1.8-5.4-2.6-8.4-2.3c-6,0.5-10.3,4.6-10.6,10.2l0,0.1h3.2L53.1,10.3z M69.8,11.9
	c-0.1,5.3-3.3,9.5-7.4,9.9c-4.6,0.4-8.8-4.1-9.3-9.9l0-0.1h-3.3l0,0.2c0,0.1,0,0.1,0,0.2c0.2,3.1,1.7,5.9,4.1,7.8
	c2.1,1.5,4.6,2.3,7.2,2.3c0.4,0,0.8,0,1.3-0.1c6-0.5,10.3-4.7,10.6-10.3l0-0.1h-3.3V11.9z M12.9,1.9c-1.4-1.1-3.2-1.6-5-1.6H0v0.4
	h0.1c1.6,0,1.8,1,1.8,3.3v14.4c0,2.2-0.2,3.3-1.8,3.3H0V22h6.8v-0.4H6.7c-1.6,0-1.8-1-1.8-3.3v-5.5H8c1.8,0,3.5-0.5,5-1.6
	c2.6-2.1,3-6,0.8-8.5C13.5,2.4,13.2,2.1,12.9,1.9z M4.8,3.9c0-2.3,0.2-3.3,1.8-3.3h1c2.2,0,4.3,2,4.3,5.9s-2.2,5.9-4.3,5.9H4.8
	L4.8,3.9L4.8,3.9z M39.3,18.5c-0.6-0.9-1.1-1.8-1.5-2.7c-1-2-1.9-3.9-3.8-4.6c3-0.6,4.8-2.6,4.8-5.3c0-3.8-3.4-5.5-6.6-5.5h-8.6v0.4
	h0.1c1.6,0,1.8,0.9,1.8,3.3v14.5c0,2.3-0.2,3.2-1.8,3.2h-0.1V22h6.7v-0.4h-0.1c-1.6,0-1.8-0.9-1.8-3.2v-7H31
	c1.8,0.1,2.7,2.3,3.6,4.6c0.6,1.7,1.4,3.2,2.5,4.6c0.9,1,2.2,1.5,3.5,1.4H44v-0.4h-0.1C42.3,21.6,40.7,20.5,39.3,18.5L39.3,18.5z
	 M28.4,3.9c0-2.3,0.2-3.3,1.8-3.3h1c1.7,0,4.3,1.4,4.3,5.2c0,4.1-2.7,5.2-4.3,5.2h-2.8V3.9z M101.5,0.3L101.5,0.3l-0.2,0l-6.6,14.2
	L87.1,0.3l0-0.1h-4.9v0.4h0.1c1,0.1,1.8,0.6,2.3,1.4v13.9c0,3.4-1.5,5.7-3.7,5.7h-0.1V22h7.9v-0.4h-0.1c-2.2,0-3.7-2.3-3.7-5.7V2.6
	c1.4,2.2,8.2,14.8,8.2,14.9l0,0.1h0.4l7.6-16.3v17.2c0,2.3-0.2,3.3-1.8,3.3h-0.1V22h6.7v-0.4H106c-1.6,0-1.8-1-1.8-3.3V3.9
	c0-2.2,0.2-3.3,1.8-3.3h0.1V0.3L101.5,0.3L101.5,0.3z M184.2,17.6L184.2,17.6c-0.8-2-6.6-17.1-6.6-17.3l0-0.1h-0.4l-6.5,16.7
	c-1.1,2.9-2.5,4.4-4.5,4.7l-0.1,0V22h6.7v-0.4h-0.1c-0.5,0-1-0.2-1.2-0.7c-0.7-1-0.7-3.1,0-5.1c0.1-0.2,0.5-1.2,1-2.4h7.2l0.4,1.1
	c0.8,2,1.4,3.7,1.7,4.4c0.5,1.3,0.6,2,0.4,2.3c-0.3,0.3-0.7,0.4-1.1,0.3h-0.1V22h6.9v-0.4h-0.1C185.8,21.6,185,19.6,184.2,17.6
	L184.2,17.6z M172.5,13.1c1-2.5,2.4-6.2,3.5-9c0.4,1.1,2,5.3,3.4,9H172.5z M240.4,16.6L240.4,16.6c-0.7,1.6-2.6,5-5.9,5h-3.5
	c-1.6,0-1.8-0.9-1.8-3.3v-7h2.1c2.2-0.1,4,1.5,4.2,3.7v0.1h0.4V7.2h-0.4v0.1c-0.1,2.2-2,3.8-4.2,3.7h-2.1V3.9c0-2.3,0.2-3.3,1.8-3.3
	h2.5c2.5,0.1,4.7,1.7,5.6,4l0,0.1h0.4l-1.1-4.5h-14.1v0.4h0.1c1.6,0,1.8,1,1.8,3.3v14.4c0,2.2-0.2,3.3-1.8,3.3h-0.1V22h15l1.3-5.4
	L240.4,16.6L240.4,16.6z M205.7,0.3h-10.3v0.4h0.1c1.6,0,1.8,0.9,1.8,3.3v14.4c0,2.3-0.2,3.3-1.8,3.3h-0.1V22h10.3
	c6.2,0,10-4.2,10-10.9c0.1-2.8-0.8-5.5-2.5-7.7C211.3,1.3,208.5,0.2,205.7,0.3L205.7,0.3z M200.1,3.9c0-2.2,0.2-3.3,1.8-3.3h2.3
	c7.3,0,8.1,7.3,8.1,10.5s-0.8,10.5-8.1,10.5H202c-1.7,0-1.8-1-1.8-3.3V3.9L200.1,3.9z M131,16.7c-0.7,1.5-2.6,5-5.8,5h-3.5
	c-1.6,0-1.8-0.9-1.8-3.3v-7h2.1c2.2-0.1,4,1.5,4.2,3.7v0.1h0.4V7.2h-0.4v0.1c-0.2,2.2-2,3.8-4.2,3.7h-2.1V3.9c0-2.3,0.2-3.3,1.8-3.3
	h2.5c2.5,0.1,4.7,1.7,5.6,4l0,0.1h0.4l-1.1-4.5h-14v0.4h0.1c1.6,0,1.8,1,1.8,3.3v14.4c0,2.2-0.2,3.3-1.8,3.3h-0.1V22h15l1.3-5.4
	L131,16.7L131,16.7z M153.5,0.7h0.1c2.2,0,3.7,2.3,3.7,5.7v11.2L144,0.3h-5.3v0.4h0.1c1,0,2.1,0.8,3.4,2.4v12.9
	c0,3.4-1.5,5.7-3.7,5.7h-0.1V22h7.9v-0.4h-0.1c-2.2,0-3.7-2.3-3.7-5.7V3.5c1,1.3,5.4,6.9,9,11.5c3,3.8,5.3,6.8,5.4,6.9l0,0h0.5V6.4
	c0-3.4,1.5-5.7,3.7-5.7h0.1V0.3h-7.9V0.7z"/>
<g>
	<path class="bjst1" d="M53.6,10c0.1-5.2,3.3-9.4,7.4-9.8h0c4.5-0.4,8.7,4,9.2,9.8l0,0.1h3.3l0-0.3c-0.3-3.2-1.7-5.9-4.1-7.7
		c-2.3-1.7-5.2-2.5-8.4-2.2C55,0.4,50.7,4.5,50.3,10l0,0.1h3.2L53.6,10z"/>
	<path class="bjst1" d="M70.2,11.6c-0.1,5.2-3.3,9.5-7.4,9.9c-4.6,0.4-8.7-4-9.2-9.9l0-0.1h-3.3l0,0.2c0,0.1,0,0.1,0,0.2
		c0.3,3.2,1.7,5.9,4.1,7.7c2,1.5,4.5,2.3,7.1,2.3c0.4,0,0.8,0,1.3-0.1c6-0.5,10.3-4.6,10.6-10.2l0-0.1h-3.2L70.2,11.6z"/>
	<path class="bjst1" d="M13.7,1.7c-1.3-1-3-1.6-4.9-1.6H0.8v0.4h0.1c1.6,0,1.8,1,1.8,3.3V18c0,2.2-0.2,3.3-1.8,3.3H0.8v0.4h6.7v-0.4
		H7.4c-1.6,0-1.8-1-1.8-3.3v-5.5h3.1c1.9,0,3.6-0.6,4.9-1.6c1.4-1.1,2.2-2.7,2.2-4.6C15.9,4.4,15.1,2.8,13.7,1.7z M8.4,12.2H5.6V3.7
		c0-2.3,0.2-3.3,1.8-3.3h1c2.1,0,4.3,2,4.3,5.9C12.7,10.2,10.6,12.2,8.4,12.2z"/>
	<path class="bjst1" d="M39.9,18.2c-0.6-0.9-1-1.8-1.5-2.7c-1-2-1.9-3.8-3.8-4.6c3-0.6,4.7-2.6,4.7-5.3c0-3.8-3.4-5.5-6.5-5.5h-8.5
		v0.4h0.1c1.6,0,1.8,0.9,1.8,3.3v14.4c0,2.3-0.2,3.2-1.8,3.2h-0.1v0.4H31v-0.4h-0.1c-1.6,0-1.8-0.9-1.8-3.2v-7l2.5,0
		c1.8,0.1,2.7,2.3,3.6,4.6c0.7,1.6,1.4,3.3,2.4,4.6c0.7,0.9,2,1.4,3.5,1.4h3.4v-0.4h-0.1C42.9,21.3,41.3,20.2,39.9,18.2z M31.9,10.7
		h-2.8v-7c0-2.3,0.2-3.3,1.8-3.3h1c1.7,0,4.3,1.4,4.3,5.1C36.2,9.6,33.5,10.7,31.9,10.7z"/>
	<path class="bjst1" d="M101.5,18c0,2.3-0.2,3.3-1.8,3.3h-0.1v0.4h6.7v-0.4h-0.1c-1.6,0-1.8-1-1.8-3.3V3.7c0-2.2,0.2-3.3,1.8-3.3h0.1
		V0.1h-4.6v0l0,0h-0.2L95,14.1l-7.6-14l0-0.1h-4.9v0.4h0.1c0.8,0,1.6,0.5,2.3,1.4v13.8c0,3.3-1.5,5.7-3.7,5.7h-0.1v0.4H89v-0.4h-0.1
		c-2.1,0-3.6-2.3-3.6-5.7V2.3c1.4,2.2,8.1,14.7,8.2,14.8l0,0.1h0.4L101.5,1V18z"/>
	<path class="bjst1" d="M183.9,17.3L183.9,17.3c-0.8-2-6.5-17-6.6-17.2l0-0.1h-0.4l-6.4,16.5c-1.1,2.9-2.5,4.3-4.5,4.7l-0.1,0v0.3h6.7
		v-0.4h-0.1c-0.5,0-0.9-0.2-1.2-0.7c-0.7-1-0.7-3.1,0-5c0.1-0.2,0.5-1.2,0.9-2.4h7.2l0.4,1.1c0.8,2,1.4,3.7,1.7,4.4
		c0.5,1.3,0.6,2,0.3,2.3c-0.2,0.2-0.5,0.3-1.1,0.3h-0.1v0.4h6.9v-0.4h-0.1C185.5,21.3,184.7,19.3,183.9,17.3z M172.3,12.8
		c1-2.5,2.4-6.2,3.5-8.9c0.4,1.1,2,5.2,3.4,8.9H172.3z"/>
	<path class="bjst1" d="M239.8,16.3L239.8,16.3c-0.7,1.5-2.6,5-5.8,5h-3.5c-1.6,0-1.8-0.9-1.8-3.3v-6.9h2.1c2.3,0,4.2,1.6,4.2,3.6v0.1
		h0.4V7H235v0.1c0,2-1.9,3.6-4.2,3.6h-2.1v-7c0-2.3,0.2-3.3,1.8-3.3h2.5c3.3,0,4.9,2.5,5.6,4l0,0.1h0.4l-1.1-4.4h-14v0.4h0.1
		c1.6,0,1.8,1,1.8,3.3V18c0,2.2-0.2,3.3-1.8,3.3h-0.1v0.4h14.9l1.3-5.4H239.8z"/>
	<path class="bjst1" d="M205.3,0.1H195v0.4h0.1c1.6,0,1.8,0.9,1.8,3.3V18c0,2.3-0.2,3.3-1.8,3.3H195v0.4h10.3c6.1,0,9.9-4.1,9.9-10.8
		c0-3.1-0.9-5.7-2.5-7.6C210.9,1.2,208.4,0.1,205.3,0.1z M203.9,21.3h-2.3c-1.6,0-1.8-1-1.8-3.3V3.7c0-2.2,0.2-3.3,1.8-3.3h2.3
		c7.2,0,8,7.3,8,10.4C211.9,14,211.1,21.3,203.9,21.3z"/>
	<path class="bjst1" d="M131,16.4c-0.7,1.5-2.5,4.9-5.8,4.9h-3.5c-1.6,0-1.8-0.9-1.8-3.3v-6.9h2.1c2.3,0,4.2,1.6,4.2,3.6v0.1h0.4V7
		h-0.4v0.1c0,2-1.9,3.6-4.2,3.6H120v-7c0-2.3,0.2-3.3,1.8-3.3h2.5c3.3,0,4.9,2.5,5.6,4l0,0.1h0.4l-1.1-4.4h-14v0.4h0.1
		c1.6,0,1.8,1,1.8,3.3V18c0,2.2-0.2,3.3-1.8,3.3h-0.1v0.4h14.9l1.3-5.4L131,16.4L131,16.4z"/>
	<path class="bjst1" d="M161.2,0.4V0.1h-7.9v0.4h0.1c2.2,0,3.7,2.3,3.7,5.7v11.1L143.9,0.1h-5.2v0.4h0.1c1,0,2.1,0.8,3.4,2.4v12.8
		c0,3.3-1.5,5.7-3.6,5.7h-0.1v0.4h7.9v-0.4h-0.1c-2.2,0-3.7-2.3-3.7-5.7V3.3c1,1.3,5.4,6.9,9,11.4c3,3.8,5.3,6.8,5.4,6.9l0,0h0.5
		V6.1c0-3.3,1.5-5.7,3.6-5.7H161.2z"/>
	<polygon class="bjst1" points="57.7,41.3 57,41.3 57,47.5 60.8,47.5 60.8,46.8 57.7,46.8 	"/>
	<rect x="63.8" y="41.3" class="bjst1" width="0.7" height="6.2"/>
	<polygon class="bjst1" points="68.3,47.5 69.1,47.5 69.1,44.9 71.6,44.9 71.6,44.2 69.1,44.2 69.1,42 71.8,42 71.8,41.3 68.3,41.3 	
		"/>
	<polygon class="bjst1" points="75.6,44.7 78.1,44.7 78.1,44 75.6,44 75.6,42 78.3,42 78.3,41.3 74.9,41.3 74.9,47.5 78.4,47.5 
		78.4,46.8 75.6,46.8 	"/>
	<path class="bjst1" d="M81.7,46.5c-0.3,0-0.5,0.2-0.5,0.5c0,0.3,0.2,0.5,0.5,0.5c0.3,0,0.5-0.2,0.5-0.5C82.2,46.8,82,46.5,81.7,46.5z
		"/>
	<polygon class="bjst1" points="92.8,44 89.4,44 89.4,41.3 88.7,41.3 88.7,47.5 89.4,47.5 89.4,44.7 92.8,44.7 92.8,47.5 93.6,47.5 
		93.6,41.3 92.8,41.3 	"/>
	<polygon class="bjst1" points="97.9,44.7 100.4,44.7 100.4,44 97.9,44 97.9,42 100.7,42 100.7,41.3 97.2,41.3 97.2,47.5 100.8,47.5 
		100.8,46.8 97.9,46.8 	"/>
	<path class="bjst1" d="M105.9,41.2l-2.7,6.2h0.8l0.8-1.9h2.8l0.8,1.9h0.8l-2.7-6.2H105.9z M105.1,44.9l1.1-2.6l1.1,2.6H105.1z"/>
	<polygon class="bjst1" points="112.8,41.3 112,41.3 112,47.5 115.8,47.5 115.8,46.8 112.8,46.8 	"/>
	<polygon class="bjst1" points="116.8,42 119,42 119,47.5 119.8,47.5 119.8,42 121.9,42 121.9,41.3 116.8,41.3 	"/>
	<polygon class="bjst1" points="128.8,44 125.4,44 125.4,41.3 124.7,41.3 124.7,47.5 125.4,47.5 125.4,44.7 128.8,44.7 128.8,47.5 
		129.6,47.5 129.6,41.3 128.8,41.3 	"/>
	<path class="bjst1" d="M133.2,46.5c-0.3,0-0.5,0.2-0.5,0.5c0,0.3,0.2,0.5,0.5,0.5c0.3,0,0.5-0.2,0.5-0.5
		C133.7,46.8,133.5,46.5,133.2,46.5z"/>
	<path class="bjst1" d="M144,43.1c0-1-0.5-1.8-2.2-1.8c-0.2,0-1.3,0-1.7,0v6.2h0.8V45h1l1.9,2.5h0.9l-2.1-2.6
		C143.4,44.7,144,44.1,144,43.1z M141.9,44.3h-0.9V42c0.3,0,0.7,0,0.9,0c1.1,0,1.4,0.5,1.4,1.1C143.3,43.8,142.6,44.3,141.9,44.3z"/>
	<polygon class="bjst1" points="148.4,44.7 150.9,44.7 150.9,44 148.4,44 148.4,42 151.1,42 151.1,41.3 147.6,41.3 147.6,47.5 
		151.2,47.5 151.2,46.8 148.4,46.8 	"/>
	<path class="bjst1" d="M154.9,42.8c0-0.5,0.4-0.9,1.1-0.9c0.5,0,0.9,0.2,1.3,0.5l0.4-0.6c-0.4-0.4-1-0.6-1.7-0.6
		c-1.2,0-1.9,0.7-1.9,1.6c0,2.1,3,1.6,3,3.1c0,0.6-0.6,1-1.2,1c-0.5,0-1.2-0.3-1.5-0.7l-0.4,0.5c0.3,0.6,1.2,0.9,2,0.9
		c1.1,0,2-0.7,2-1.7C158,43.8,154.9,44.3,154.9,42.8z"/>
	<path class="bjst1" d="M163.8,41.2c-1.8,0-3.2,1.4-3.2,3.2c0,1.9,1.4,3.2,3.2,3.2s3.2-1.3,3.2-3.2C166.9,42.5,165.5,41.2,163.8,41.2z
		 M163.8,46.9c-1.3,0-2.4-1.1-2.4-2.5c0-1.4,1-2.5,2.4-2.5c1.3,0,2.4,1,2.4,2.5C166.1,45.8,165.2,46.9,163.8,46.9z"/>
	<path class="bjst1" d="M173.9,43.1c0-1-0.5-1.8-2.2-1.8c-0.2,0-1.3,0-1.7,0v6.2h0.7V45h1l1.9,2.5h0.9l-2.1-2.6
		C173.2,44.7,173.9,44.1,173.9,43.1z M171.7,44.3h-0.9V42c0.3,0,0.7,0,0.9,0c1.1,0,1.4,0.5,1.4,1.1
		C173.1,43.8,172.4,44.3,171.7,44.3z"/>
	<polygon class="bjst1" points="176.3,42 178.4,42 178.4,47.5 179.2,47.5 179.2,42 181.3,42 181.3,41.3 176.3,41.3 	"/>
	<path class="bjst1" d="M183.5,46.5c-0.3,0-0.5,0.2-0.5,0.5c0,0.3,0.2,0.5,0.5,0.5c0.3,0,0.5-0.2,0.5-0.5
		C184,46.8,183.8,46.5,183.5,46.5z"/>
</g>
</svg><svg version="1.1" id="logo-white" x="273" viewBox="-2 -2 244.8 52" style="enable-background:new 0 0 240.8 48;" xml:space="preserve" width="244.8" height="52" xmlns="http://www.w3.org/2000/svg">
<style type="text/css">.bkst0{display:none;fill-rule:evenodd;clip-rule:evenodd;fill:#aa998b}.bkst1{fill:#fff}</style>
<path id="bkLOGO" class="bkst0" d="M60.2,41.6H61v5.6H64v0.7h-3.8L60.2,41.6L60.2,41.6z M67.1,41.6h0.8v6.3h-0.8
	C67.1,47.9,67.1,41.6,67.1,41.6z M71.7,41.6h3.5v0.7h-2.8v2.2h2.5v0.7h-2.5v2.6h-0.8C71.7,47.9,71.7,41.6,71.7,41.6z M78.3,41.6h3.5
	v0.7H79v2h2.5v0.7H79v2.1h2.9v0.7h-3.6V41.6L78.3,41.6z M85.2,46.9c0.3,0,0.5,0.2,0.5,0.5c0,0.3-0.2,0.5-0.5,0.5c0,0,0,0,0,0
	c-0.3,0-0.5-0.2-0.5-0.5c0,0,0,0,0,0C84.7,47.2,84.9,46.9,85.2,46.9L85.2,46.9z M96.4,45.1H93v2.8h-0.8v-6.3H93v2.7h3.4v-2.7h0.8
	v6.3h-0.8L96.4,45.1L96.4,45.1z M100.9,41.6h3.5v0.7h-2.8v2h2.5v0.7h-2.5v2.1h2.9v0.7h-3.6V41.6L100.9,41.6z M107.8,41.6h0.8v5.6
	h3.1v0.7h-3.8L107.8,41.6L107.8,41.6z M112.6,41.6h5.1v0.7h-2.2v5.6h-0.8v-5.6h-2.2L112.6,41.6L112.6,41.6z M124.8,45.1h-3.4v2.8
	h-0.8v-6.3h0.8v2.7h3.4v-2.7h0.8v6.3h-0.8V45.1z M129.2,46.9c0.3,0,0.5,0.2,0.5,0.5c0,0.3-0.2,0.5-0.5,0.5c0,0,0,0,0,0
	c-0.3,0-0.5-0.2-0.5-0.5c0,0,0,0,0,0C128.7,47.2,129,46.9,129.2,46.9L129.2,46.9z M136.3,47.9v-6.3c0.3,0,1.5,0,1.7,0
	c1.7,0,2.2,0.9,2.2,1.9c0,0.8-0.5,1.6-1.4,1.8l2.1,2.7H140l-1.9-2.5h-1v2.5H136.3L136.3,47.9z M137,42.3v2.3h0.9
	c0.7,0.1,1.3-0.5,1.4-1.2c0,0,0,0,0,0c0-0.6-0.4-1.2-1.5-1.2C137.7,42.3,137.3,42.3,137,42.3L137,42.3z M143.8,41.6h3.5v0.7h-2.8v2
	h2.5v0.7h-2.5v2.1h2.9v0.7h-3.6L143.8,41.6L143.8,41.6z M150.4,43.2c0-0.9,0.8-1.7,1.7-1.7c0.1,0,0.1,0,0.2,0c0.6,0,1.3,0.2,1.7,0.7
	l-0.4,0.6c-0.3-0.3-0.8-0.5-1.3-0.5c-0.5-0.1-1,0.3-1.1,0.8c0,0,0,0.1,0,0.1c0,1.6,3.1,1,3.1,3.1c-0.1,1-0.9,1.8-1.9,1.7
	c0,0-0.1,0-0.1,0c-0.8,0-1.5-0.3-2-0.9l0.4-0.5c0.4,0.5,0.9,0.7,1.5,0.7c0.6,0.1,1.1-0.3,1.2-0.9c0,0,0,0,0-0.1
	C153.4,44.8,150.4,45.3,150.4,43.2L150.4,43.2z M160.1,41.5c1.8,0,3.2,1.4,3.3,3.2c0,1.8-1.4,3.2-3.2,3.3c-1.8,0-3.2-1.4-3.3-3.2
	c0,0,0,0,0,0c-0.1-1.7,1.3-3.2,3-3.2C159.9,41.5,160,41.5,160.1,41.5L160.1,41.5z M160.1,47.3c1.3,0,2.4-1,2.4-2.3
	c0-0.1,0-0.1,0-0.2c-0.1-1.3-1.2-2.3-2.5-2.3s-2.3,1.2-2.3,2.5C157.8,46.3,158.8,47.3,160.1,47.3L160.1,47.3z M166.4,47.9v-6.3
	c0.3,0,1.5,0,1.7,0c1.7,0,2.2,0.9,2.2,1.9c0,0.8-0.5,1.6-1.3,1.8l2.1,2.7h-0.9l-1.9-2.5h-1v2.5H166.4z M167.2,42.3v2.3h0.9
	c0.7,0.1,1.3-0.5,1.4-1.2c0,0,0,0,0,0c0-0.6-0.4-1.2-1.5-1.2C167.9,42.3,167.5,42.3,167.2,42.3L167.2,42.3z M172.7,41.6h5.1v0.7
	h-2.2v5.6h-0.8v-5.6h-2.2V41.6z M180.1,46.9c0.3,0,0.5,0.2,0.5,0.5c0,0.3-0.2,0.5-0.5,0.5c0,0,0,0,0,0c-0.3,0-0.5-0.2-0.5-0.5
	c0,0,0,0,0,0C179.6,47.2,179.8,46.9,180.1,46.9L180.1,46.9z M53.1,10.3c0.1-5.3,3.3-9.5,7.4-9.8l0,0c4.6-0.4,8.7,4,9.3,9.8l0,0.1H73
	l0-0.3c-0.2-3.1-1.7-5.9-4.1-7.8c-2.4-1.8-5.4-2.6-8.4-2.3c-6,0.5-10.3,4.6-10.6,10.2l0,0.1h3.2L53.1,10.3z M69.8,11.9
	c-0.1,5.3-3.3,9.5-7.4,9.9c-4.6,0.4-8.8-4.1-9.3-9.9l0-0.1h-3.3l0,0.2c0,0.1,0,0.1,0,0.2c0.2,3.1,1.7,5.9,4.1,7.8
	c2.1,1.5,4.6,2.3,7.2,2.3c0.4,0,0.8,0,1.3-0.1c6-0.5,10.3-4.7,10.6-10.3l0-0.1h-3.3V11.9z M12.9,1.9c-1.4-1.1-3.2-1.6-5-1.6H0v0.4
	h0.1c1.6,0,1.8,1,1.8,3.3v14.4c0,2.2-0.2,3.3-1.8,3.3H0V22h6.8v-0.4H6.7c-1.6,0-1.8-1-1.8-3.3v-5.5H8c1.8,0,3.5-0.5,5-1.6
	c2.6-2.1,3-6,0.8-8.5C13.5,2.4,13.2,2.1,12.9,1.9z M4.8,3.9c0-2.3,0.2-3.3,1.8-3.3h1c2.2,0,4.3,2,4.3,5.9s-2.2,5.9-4.3,5.9H4.8
	L4.8,3.9L4.8,3.9z M39.3,18.5c-0.6-0.9-1.1-1.8-1.5-2.7c-1-2-1.9-3.9-3.8-4.6c3-0.6,4.8-2.6,4.8-5.3c0-3.8-3.4-5.5-6.6-5.5h-8.6v0.4
	h0.1c1.6,0,1.8,0.9,1.8,3.3v14.5c0,2.3-0.2,3.2-1.8,3.2h-0.1V22h6.7v-0.4h-0.1c-1.6,0-1.8-0.9-1.8-3.2v-7H31
	c1.8,0.1,2.7,2.3,3.6,4.6c0.6,1.7,1.4,3.2,2.5,4.6c0.9,1,2.2,1.5,3.5,1.4H44v-0.4h-0.1C42.3,21.6,40.7,20.5,39.3,18.5L39.3,18.5z
	 M28.4,3.9c0-2.3,0.2-3.3,1.8-3.3h1c1.7,0,4.3,1.4,4.3,5.2c0,4.1-2.7,5.2-4.3,5.2h-2.8V3.9z M101.5,0.3L101.5,0.3l-0.2,0l-6.6,14.2
	L87.1,0.3l0-0.1h-4.9v0.4h0.1c1,0.1,1.8,0.6,2.3,1.4v13.9c0,3.4-1.5,5.7-3.7,5.7h-0.1V22h7.9v-0.4h-0.1c-2.2,0-3.7-2.3-3.7-5.7V2.6
	c1.4,2.2,8.2,14.8,8.2,14.9l0,0.1h0.4l7.6-16.3v17.2c0,2.3-0.2,3.3-1.8,3.3h-0.1V22h6.7v-0.4H106c-1.6,0-1.8-1-1.8-3.3V3.9
	c0-2.2,0.2-3.3,1.8-3.3h0.1V0.3L101.5,0.3L101.5,0.3z M184.2,17.6L184.2,17.6c-0.8-2-6.6-17.1-6.6-17.3l0-0.1h-0.4l-6.5,16.7
	c-1.1,2.9-2.5,4.4-4.5,4.7l-0.1,0V22h6.7v-0.4h-0.1c-0.5,0-1-0.2-1.2-0.7c-0.7-1-0.7-3.1,0-5.1c0.1-0.2,0.5-1.2,1-2.4h7.2l0.4,1.1
	c0.8,2,1.4,3.7,1.7,4.4c0.5,1.3,0.6,2,0.4,2.3c-0.3,0.3-0.7,0.4-1.1,0.3h-0.1V22h6.9v-0.4h-0.1C185.8,21.6,185,19.6,184.2,17.6
	L184.2,17.6z M172.5,13.1c1-2.5,2.4-6.2,3.5-9c0.4,1.1,2,5.3,3.4,9H172.5z M240.4,16.6L240.4,16.6c-0.7,1.6-2.6,5-5.9,5h-3.5
	c-1.6,0-1.8-0.9-1.8-3.3v-7h2.1c2.2-0.1,4,1.5,4.2,3.7v0.1h0.4V7.2h-0.4v0.1c-0.1,2.2-2,3.8-4.2,3.7h-2.1V3.9c0-2.3,0.2-3.3,1.8-3.3
	h2.5c2.5,0.1,4.7,1.7,5.6,4l0,0.1h0.4l-1.1-4.5h-14.1v0.4h0.1c1.6,0,1.8,1,1.8,3.3v14.4c0,2.2-0.2,3.3-1.8,3.3h-0.1V22h15l1.3-5.4
	L240.4,16.6L240.4,16.6z M205.7,0.3h-10.3v0.4h0.1c1.6,0,1.8,0.9,1.8,3.3v14.4c0,2.3-0.2,3.3-1.8,3.3h-0.1V22h10.3
	c6.2,0,10-4.2,10-10.9c0.1-2.8-0.8-5.5-2.5-7.7C211.3,1.3,208.5,0.2,205.7,0.3L205.7,0.3z M200.1,3.9c0-2.2,0.2-3.3,1.8-3.3h2.3
	c7.3,0,8.1,7.3,8.1,10.5s-0.8,10.5-8.1,10.5H202c-1.7,0-1.8-1-1.8-3.3V3.9L200.1,3.9z M131,16.7c-0.7,1.5-2.6,5-5.8,5h-3.5
	c-1.6,0-1.8-0.9-1.8-3.3v-7h2.1c2.2-0.1,4,1.5,4.2,3.7v0.1h0.4V7.2h-0.4v0.1c-0.2,2.2-2,3.8-4.2,3.7h-2.1V3.9c0-2.3,0.2-3.3,1.8-3.3
	h2.5c2.5,0.1,4.7,1.7,5.6,4l0,0.1h0.4l-1.1-4.5h-14v0.4h0.1c1.6,0,1.8,1,1.8,3.3v14.4c0,2.2-0.2,3.3-1.8,3.3h-0.1V22h15l1.3-5.4
	L131,16.7L131,16.7z M153.5,0.7h0.1c2.2,0,3.7,2.3,3.7,5.7v11.2L144,0.3h-5.3v0.4h0.1c1,0,2.1,0.8,3.4,2.4v12.9
	c0,3.4-1.5,5.7-3.7,5.7h-0.1V22h7.9v-0.4h-0.1c-2.2,0-3.7-2.3-3.7-5.7V3.5c1,1.3,5.4,6.9,9,11.5c3,3.8,5.3,6.8,5.4,6.9l0,0h0.5V6.4
	c0-3.4,1.5-5.7,3.7-5.7h0.1V0.3h-7.9V0.7z"/>
<g>
	<path class="bkst1" d="M53.6,10c0.1-5.2,3.3-9.4,7.4-9.8h0c4.5-0.4,8.7,4,9.2,9.8l0,0.1h3.3l0-0.3c-0.3-3.2-1.7-5.9-4.1-7.7
		c-2.3-1.7-5.2-2.5-8.4-2.2C55,0.4,50.7,4.5,50.3,10l0,0.1h3.2L53.6,10z"/>
	<path class="bkst1" d="M70.2,11.6c-0.1,5.2-3.3,9.5-7.4,9.9c-4.6,0.4-8.7-4-9.2-9.9l0-0.1h-3.3l0,0.2c0,0.1,0,0.1,0,0.2
		c0.3,3.2,1.7,5.9,4.1,7.7c2,1.5,4.5,2.3,7.1,2.3c0.4,0,0.8,0,1.3-0.1c6-0.5,10.3-4.6,10.6-10.2l0-0.1h-3.2L70.2,11.6z"/>
	<path class="bkst1" d="M13.7,1.7c-1.3-1-3-1.6-4.9-1.6H0.8v0.4h0.1c1.6,0,1.8,1,1.8,3.3V18c0,2.2-0.2,3.3-1.8,3.3H0.8v0.4h6.7v-0.4
		H7.4c-1.6,0-1.8-1-1.8-3.3v-5.5h3.1c1.9,0,3.6-0.6,4.9-1.6c1.4-1.1,2.2-2.7,2.2-4.6C15.9,4.4,15.1,2.8,13.7,1.7z M8.4,12.2H5.6V3.7
		c0-2.3,0.2-3.3,1.8-3.3h1c2.1,0,4.3,2,4.3,5.9C12.7,10.2,10.6,12.2,8.4,12.2z"/>
	<path class="bkst1" d="M39.9,18.2c-0.6-0.9-1-1.8-1.5-2.7c-1-2-1.9-3.8-3.8-4.6c3-0.6,4.7-2.6,4.7-5.3c0-3.8-3.4-5.5-6.5-5.5h-8.5
		v0.4h0.1c1.6,0,1.8,0.9,1.8,3.3v14.4c0,2.3-0.2,3.2-1.8,3.2h-0.1v0.4H31v-0.4h-0.1c-1.6,0-1.8-0.9-1.8-3.2v-7l2.5,0
		c1.8,0.1,2.7,2.3,3.6,4.6c0.7,1.6,1.4,3.3,2.4,4.6c0.7,0.9,2,1.4,3.5,1.4h3.4v-0.4h-0.1C42.9,21.3,41.3,20.2,39.9,18.2z M31.9,10.7
		h-2.8v-7c0-2.3,0.2-3.3,1.8-3.3h1c1.7,0,4.3,1.4,4.3,5.1C36.2,9.6,33.5,10.7,31.9,10.7z"/>
	<path class="bkst1" d="M101.5,18c0,2.3-0.2,3.3-1.8,3.3h-0.1v0.4h6.7v-0.4h-0.1c-1.6,0-1.8-1-1.8-3.3V3.7c0-2.2,0.2-3.3,1.8-3.3h0.1
		V0.1h-4.6v0l0,0h-0.2L95,14.1l-7.6-14l0-0.1h-4.9v0.4h0.1c0.8,0,1.6,0.5,2.3,1.4v13.8c0,3.3-1.5,5.7-3.7,5.7h-0.1v0.4H89v-0.4h-0.1
		c-2.1,0-3.6-2.3-3.6-5.7V2.3c1.4,2.2,8.1,14.7,8.2,14.8l0,0.1h0.4L101.5,1V18z"/>
	<path class="bkst1" d="M183.9,17.3L183.9,17.3c-0.8-2-6.5-17-6.6-17.2l0-0.1h-0.4l-6.4,16.5c-1.1,2.9-2.5,4.3-4.5,4.7l-0.1,0v0.3h6.7
		v-0.4h-0.1c-0.5,0-0.9-0.2-1.2-0.7c-0.7-1-0.7-3.1,0-5c0.1-0.2,0.5-1.2,0.9-2.4h7.2l0.4,1.1c0.8,2,1.4,3.7,1.7,4.4
		c0.5,1.3,0.6,2,0.3,2.3c-0.2,0.2-0.5,0.3-1.1,0.3h-0.1v0.4h6.9v-0.4h-0.1C185.5,21.3,184.7,19.3,183.9,17.3z M172.3,12.8
		c1-2.5,2.4-6.2,3.5-8.9c0.4,1.1,2,5.2,3.4,8.9H172.3z"/>
	<path class="bkst1" d="M239.8,16.3L239.8,16.3c-0.7,1.5-2.6,5-5.8,5h-3.5c-1.6,0-1.8-0.9-1.8-3.3v-6.9h2.1c2.3,0,4.2,1.6,4.2,3.6v0.1
		h0.4V7H235v0.1c0,2-1.9,3.6-4.2,3.6h-2.1v-7c0-2.3,0.2-3.3,1.8-3.3h2.5c3.3,0,4.9,2.5,5.6,4l0,0.1h0.4l-1.1-4.4h-14v0.4h0.1
		c1.6,0,1.8,1,1.8,3.3V18c0,2.2-0.2,3.3-1.8,3.3h-0.1v0.4h14.9l1.3-5.4H239.8z"/>
	<path class="bkst1" d="M205.3,0.1H195v0.4h0.1c1.6,0,1.8,0.9,1.8,3.3V18c0,2.3-0.2,3.3-1.8,3.3H195v0.4h10.3c6.1,0,9.9-4.1,9.9-10.8
		c0-3.1-0.9-5.7-2.5-7.6C210.9,1.2,208.4,0.1,205.3,0.1z M203.9,21.3h-2.3c-1.6,0-1.8-1-1.8-3.3V3.7c0-2.2,0.2-3.3,1.8-3.3h2.3
		c7.2,0,8,7.3,8,10.4C211.9,14,211.1,21.3,203.9,21.3z"/>
	<path class="bkst1" d="M131,16.4c-0.7,1.5-2.5,4.9-5.8,4.9h-3.5c-1.6,0-1.8-0.9-1.8-3.3v-6.9h2.1c2.3,0,4.2,1.6,4.2,3.6v0.1h0.4V7
		h-0.4v0.1c0,2-1.9,3.6-4.2,3.6H120v-7c0-2.3,0.2-3.3,1.8-3.3h2.5c3.3,0,4.9,2.5,5.6,4l0,0.1h0.4l-1.1-4.4h-14v0.4h0.1
		c1.6,0,1.8,1,1.8,3.3V18c0,2.2-0.2,3.3-1.8,3.3h-0.1v0.4h14.9l1.3-5.4L131,16.4L131,16.4z"/>
	<path class="bkst1" d="M161.2,0.4V0.1h-7.9v0.4h0.1c2.2,0,3.7,2.3,3.7,5.7v11.1L143.9,0.1h-5.2v0.4h0.1c1,0,2.1,0.8,3.4,2.4v12.8
		c0,3.3-1.5,5.7-3.6,5.7h-0.1v0.4h7.9v-0.4h-0.1c-2.2,0-3.7-2.3-3.7-5.7V3.3c1,1.3,5.4,6.9,9,11.4c3,3.8,5.3,6.8,5.4,6.9l0,0h0.5
		V6.1c0-3.3,1.5-5.7,3.6-5.7H161.2z"/>
	<polygon class="bkst1" points="57.7,41.3 57,41.3 57,47.5 60.8,47.5 60.8,46.8 57.7,46.8 	"/>
	<rect x="63.8" y="41.3" class="bkst1" width="0.7" height="6.2"/>
	<polygon class="bkst1" points="68.3,47.5 69.1,47.5 69.1,44.9 71.6,44.9 71.6,44.2 69.1,44.2 69.1,42 71.8,42 71.8,41.3 68.3,41.3 	
		"/>
	<polygon class="bkst1" points="75.6,44.7 78.1,44.7 78.1,44 75.6,44 75.6,42 78.3,42 78.3,41.3 74.9,41.3 74.9,47.5 78.4,47.5 
		78.4,46.8 75.6,46.8 	"/>
	<path class="bkst1" d="M81.7,46.5c-0.3,0-0.5,0.2-0.5,0.5c0,0.3,0.2,0.5,0.5,0.5c0.3,0,0.5-0.2,0.5-0.5C82.2,46.8,82,46.5,81.7,46.5z
		"/>
	<polygon class="bkst1" points="92.8,44 89.4,44 89.4,41.3 88.7,41.3 88.7,47.5 89.4,47.5 89.4,44.7 92.8,44.7 92.8,47.5 93.6,47.5 
		93.6,41.3 92.8,41.3 	"/>
	<polygon class="bkst1" points="97.9,44.7 100.4,44.7 100.4,44 97.9,44 97.9,42 100.7,42 100.7,41.3 97.2,41.3 97.2,47.5 100.8,47.5 
		100.8,46.8 97.9,46.8 	"/>
	<path class="bkst1" d="M105.9,41.2l-2.7,6.2h0.8l0.8-1.9h2.8l0.8,1.9h0.8l-2.7-6.2H105.9z M105.1,44.9l1.1-2.6l1.1,2.6H105.1z"/>
	<polygon class="bkst1" points="112.8,41.3 112,41.3 112,47.5 115.8,47.5 115.8,46.8 112.8,46.8 	"/>
	<polygon class="bkst1" points="116.8,42 119,42 119,47.5 119.8,47.5 119.8,42 121.9,42 121.9,41.3 116.8,41.3 	"/>
	<polygon class="bkst1" points="128.8,44 125.4,44 125.4,41.3 124.7,41.3 124.7,47.5 125.4,47.5 125.4,44.7 128.8,44.7 128.8,47.5 
		129.6,47.5 129.6,41.3 128.8,41.3 	"/>
	<path class="bkst1" d="M133.2,46.5c-0.3,0-0.5,0.2-0.5,0.5c0,0.3,0.2,0.5,0.5,0.5c0.3,0,0.5-0.2,0.5-0.5
		C133.7,46.8,133.5,46.5,133.2,46.5z"/>
	<path class="bkst1" d="M144,43.1c0-1-0.5-1.8-2.2-1.8c-0.2,0-1.3,0-1.7,0v6.2h0.8V45h1l1.9,2.5h0.9l-2.1-2.6
		C143.4,44.7,144,44.1,144,43.1z M141.9,44.3h-0.9V42c0.3,0,0.7,0,0.9,0c1.1,0,1.4,0.5,1.4,1.1C143.3,43.8,142.6,44.3,141.9,44.3z"/>
	<polygon class="bkst1" points="148.4,44.7 150.9,44.7 150.9,44 148.4,44 148.4,42 151.1,42 151.1,41.3 147.6,41.3 147.6,47.5 
		151.2,47.5 151.2,46.8 148.4,46.8 	"/>
	<path class="bkst1" d="M154.9,42.8c0-0.5,0.4-0.9,1.1-0.9c0.5,0,0.9,0.2,1.3,0.5l0.4-0.6c-0.4-0.4-1-0.6-1.7-0.6
		c-1.2,0-1.9,0.7-1.9,1.6c0,2.1,3,1.6,3,3.1c0,0.6-0.6,1-1.2,1c-0.5,0-1.2-0.3-1.5-0.7l-0.4,0.5c0.3,0.6,1.2,0.9,2,0.9
		c1.1,0,2-0.7,2-1.7C158,43.8,154.9,44.3,154.9,42.8z"/>
	<path class="bkst1" d="M163.8,41.2c-1.8,0-3.2,1.4-3.2,3.2c0,1.9,1.4,3.2,3.2,3.2s3.2-1.3,3.2-3.2C166.9,42.5,165.5,41.2,163.8,41.2z
		 M163.8,46.9c-1.3,0-2.4-1.1-2.4-2.5c0-1.4,1-2.5,2.4-2.5c1.3,0,2.4,1,2.4,2.5C166.1,45.8,165.2,46.9,163.8,46.9z"/>
	<path class="bkst1" d="M173.9,43.1c0-1-0.5-1.8-2.2-1.8c-0.2,0-1.3,0-1.7,0v6.2h0.7V45h1l1.9,2.5h0.9l-2.1-2.6
		C173.2,44.7,173.9,44.1,173.9,43.1z M171.7,44.3h-0.9V42c0.3,0,0.7,0,0.9,0c1.1,0,1.4,0.5,1.4,1.1
		C173.1,43.8,172.4,44.3,171.7,44.3z"/>
	<polygon class="bkst1" points="176.3,42 178.4,42 178.4,47.5 179.2,47.5 179.2,42 181.3,42 181.3,41.3 176.3,41.3 	"/>
	<path class="bkst1" d="M183.5,46.5c-0.3,0-0.5,0.2-0.5,0.5c0,0.3,0.2,0.5,0.5,0.5c0.3,0,0.5-0.2,0.5-0.5
		C184,46.8,183.8,46.5,183.5,46.5z"/>
</g>
</svg><svg width="28" height="28" viewBox="-2 -2 28 28" id="loop" x="117.80499999999999" y="461.344" xmlns="http://www.w3.org/2000/svg">
  <defs>
    <style>.blcls-1{fill:#bf7a60;fill-rule:evenodd}</style>
  </defs>
  <path class="blcls-1" d="M937.572,543a10.569,10.569,0,1,0,10.569,10.569A10.581,10.581,0,0,0,937.572,543Zm0,19.187a8.618,8.618,0,1,1,8.618-8.618A8.628,8.628,0,0,1,937.572,562.187Zm13.145,3.148-5.593-5.594a0.976,0.976,0,0,0-1.38,1.38l5.594,5.593A0.975,0.975,0,0,0,950.717,565.335Z" transform="translate(-927 -543)"/>
</svg><svg width="25" height="29" viewBox="-2 -2 25 29" id="menu-vtour" y="461.344" xmlns="http://www.w3.org/2000/svg">
  <defs>
    <style>.bmcls-1{fill:#f2f2f2;fill-rule:evenodd}</style>
  </defs>
  <path class="bmcls-1" d="M1352.97,113.154c0,2.642-5.45,3.846-10.51,3.846s-10.51-1.2-10.51-3.846c0-2.033,3.01-2.992,5.53-3.439a0.962,0.962,0,0,1,.33,1.895c-3.04.537-3.9,1.379-3.95,1.559,0.15,0.5,3.02,1.908,8.6,1.908s8.45-1.4,8.6-1.938c-0.05-.15-0.91-1-3.98-1.533a0.962,0.962,0,0,1,.33-1.895C1349.95,110.156,1352.97,111.113,1352.97,113.154Zm-14.33-5.769h0.96l0.99,5.769a0.959,0.959,0,0,0,.95.961h1.84a0.96,0.96,0,0,0,.95-0.961l1-5.769h0.95a0.962,0.962,0,0,0,.96-0.962v-5.769a2.347,2.347,0,0,0-2.1-1.728,16.71,16.71,0,0,0-2.66-.18,16.974,16.974,0,0,0-2.7.18,2.349,2.349,0,0,0-2.1,1.728v5.769A0.962,0.962,0,0,0,1338.64,107.385Zm3.82-9.616a2.885,2.885,0,1,0-2.86-2.884A2.881,2.881,0,0,0,1342.46,97.769Z" transform="translate(-1331.97 -92)"/>
</svg><svg width="21.938" height="22.719" viewBox="-2 -2 21.938 22.719" id="moon-brown" x="334.068" y="369.344" xmlns="http://www.w3.org/2000/svg">
  <defs>
    <style>.bncls-1{fill:#aa998b;fill-rule:evenodd}</style>
  </defs>
  <path class="bncls-1" d="M761.005,974.36a9.235,9.235,0,0,0,8.465-5.274,7.307,7.307,0,0,1-3.05.594,7.407,7.407,0,0,1-7.445-7.353,7.61,7.61,0,0,1,4.014-6.575,14.3,14.3,0,0,0-1.984-.111A9.36,9.36,0,1,0,761.005,974.36Z" transform="translate(-751.531 -955.656)"/>
</svg><svg width="21.938" height="22.719" viewBox="-2 -2 21.938 22.719" id="moon-white" x="312.13" y="369.344" xmlns="http://www.w3.org/2000/svg">
  <defs>
    <style>.bocls-1{fill:#fff;fill-rule:evenodd}</style>
  </defs>
  <path class="bocls-1" d="M761.005,974.36a9.235,9.235,0,0,0,8.465-5.274,7.307,7.307,0,0,1-3.05.594,7.407,7.407,0,0,1-7.445-7.353,7.61,7.61,0,0,1,4.014-6.575,14.3,14.3,0,0,0-1.984-.111A9.36,9.36,0,1,0,761.005,974.36Z" transform="translate(-751.531 -955.656)"/>
</svg><svg width="20.75" height="21.68" viewBox="-2 -2 20.75 21.68" id="num-spacer" x="356.006" y="369.344" xmlns="http://www.w3.org/2000/svg">
  <defs>
    <style>.bpcls-1{fill:#fff;fill-rule:evenodd}</style>
  </defs>
  <path class="bpcls-1" d="M1177.36,1029.34l-0.72-.68,16-17,0.72,0.68Z" transform="translate(-1176.63 -1011.66)"/>
</svg><svg id="pdf" width="114" height="114" viewBox="-2 -2 114 114" x="273" y="104" xmlns="http://www.w3.org/2000/svg">
  <defs>
    <style>.bqcls-1{fill:#aa998b}.bqcls-2{fill:#fff;fill-rule:evenodd}</style>
  </defs>
  <circle id="bqEllipse_2_copy_4" data-name="Ellipse 2 copy 4" class="bqcls-1" cx="55" cy="55" r="55"/>
  <path id="bqpdf-2" data-name="pdf" class="bqcls-2" d="M1783.19,916.251v-2.815h-1.89v20.1h1.89V924.98a6.416,6.416,0,0,0,5.79,3.159,7.1,7.1,0,0,0,5.23-2.183,7.683,7.683,0,0,0,0-10.682,7.1,7.1,0,0,0-5.23-2.182,6.416,6.416,0,0,0-5.79,3.159h0Zm0,4.364a5.512,5.512,0,0,1,1.63-4.034,5.707,5.707,0,0,1,8.03,0,5.808,5.808,0,0,1,0,8.069,5.707,5.707,0,0,1-8.03,0A5.511,5.511,0,0,1,1783.19,920.615Zm30.09-4.364a6.416,6.416,0,0,0-5.79-3.159,7.1,7.1,0,0,0-5.23,2.182,7.683,7.683,0,0,0,0,10.682,7.1,7.1,0,0,0,5.23,2.183,6.416,6.416,0,0,0,5.79-3.159v2.814h1.89v-20.1h-1.89v8.558Zm-11.29,4.364a5.512,5.512,0,0,1,1.63-4.034,5.707,5.707,0,0,1,8.03,0,5.808,5.808,0,0,1,0,8.069,5.707,5.707,0,0,1-8.03,0A5.511,5.511,0,0,1,1801.99,920.615Zm25.79-13.266a5.678,5.678,0,0,0-4.45,1.249,5.508,5.508,0,0,0-1.57,4.264v0.574h-2.43v1.838h2.43v12.52h1.9v-12.52h4.12v-1.838h-4.12v-0.574a3.747,3.747,0,0,1,1.01-2.958,4.1,4.1,0,0,1,3.11-.717v-1.838Z" transform="translate(-1750 -866)"/>
</svg><svg width="33.875" height="20.81" viewBox="-2 -2 33.875 20.81" id="pdf-m" x="273" y="231.312" xmlns="http://www.w3.org/2000/svg">
  <defs>
    <style>.brcls-1{fill:#fff;fill-rule:evenodd}</style>
  </defs>
  <path id="brpdf-m" class="brcls-1" d="M95.963,1393v-1.81H94.748v12.91h1.215v-5.49a4.125,4.125,0,0,0,3.719,2.03,4.543,4.543,0,0,0,3.36-1.41,4.924,4.924,0,0,0,0-6.86,4.572,4.572,0,0,0-3.36-1.4,4.125,4.125,0,0,0-3.719,2.03h0Zm0,2.8a3.547,3.547,0,0,1,1.05-2.59,3.664,3.664,0,0,1,5.155,0,3.722,3.722,0,0,1,0,5.18,3.64,3.64,0,0,1-5.155,0A3.531,3.531,0,0,1,95.963,1395.8ZM115.3,1393a4.126,4.126,0,0,0-3.719-2.03,4.572,4.572,0,0,0-3.36,1.4,4.927,4.927,0,0,0,0,6.86,4.543,4.543,0,0,0,3.36,1.41,4.126,4.126,0,0,0,3.719-2.03v1.8h1.215V1387.5H115.3v5.5Zm-7.254,2.8a3.549,3.549,0,0,1,1.049-2.59,3.665,3.665,0,0,1,5.156,0,3.722,3.722,0,0,1,0,5.18,3.641,3.641,0,0,1-5.156,0A3.533,3.533,0,0,1,108.041,1395.8Zm16.57-8.52a3.648,3.648,0,0,0-2.863.8,3.564,3.564,0,0,0-1,2.74v0.37H119.18v1.18h1.565v8.04h1.215v-8.04h2.651v-1.18H121.96v-0.37a2.416,2.416,0,0,1,.654-1.9,2.646,2.646,0,0,1,2-.46v-1.18Z" transform="translate(-94.75 -1387.28)"/>
</svg><svg width="18.813" height="18.781" viewBox="-2 -2 18.813 18.781" id="pen" x="445.5039999999999" y="369.344" xmlns="http://www.w3.org/2000/svg">
  <defs>
    <style>.bscls-1{fill:#0196e3;fill-rule:evenodd}</style>
  </defs>
  <path id="bs_10_" data-name=" 10 " class="bscls-1" d="M161.819,506.805c-0.043.186-.08,0.373-0.131,0.557a3.377,3.377,0,0,1-1.1,1.653l-4.487-4.488a3.323,3.323,0,0,1,2.1-1.2,0.829,0.829,0,0,0,.108-0.031h0.661a0.651,0.651,0,0,0,.092.029,3.126,3.126,0,0,1,2.627,2.274c0.057,0.176.085,0.361,0.126,0.542v0.662Zm-7.263-.778,4.536,4.537a1.319,1.319,0,0,0-.148.109q-2.855,2.853-5.7,5.709a2.783,2.783,0,0,1-.925.62,18.42,18.42,0,0,1-3,.884c-0.371.083-.744,0.154-1.118,0.219a1.032,1.032,0,0,1-1.182-1.142,20.525,20.525,0,0,1,1.078-4.1,2.89,2.89,0,0,1,.667-1.01q2.852-2.832,5.686-5.681A1.419,1.419,0,0,0,154.556,506.027Z" transform="translate(-147 -503.313)"/>
</svg><svg width="23" height="23" viewBox="-2 -2 23 23" id="phone" x="266.13" y="369.344" xmlns="http://www.w3.org/2000/svg">
  <defs>
    <style>.btcls-1{fill:#c7c2b1;fill-rule:evenodd}</style>
  </defs>
  <path class="btcls-1" d="M308.868,927.632a7.667,7.667,0,0,1-2.315-4.353,0.649,0.649,0,0,1,.187-0.545l1.467-1.467a0.655,0.655,0,0,0,.093-0.811l-2.337-3.629a0.654,0.654,0,0,0-.848-0.238l-3.751,1.766a0.653,0.653,0,0,0-.361.651A19.578,19.578,0,0,0,317.492,935.5a0.652,0.652,0,0,0,.651-0.361l1.767-3.751a0.654,0.654,0,0,0-.238-0.847l-3.628-2.337a0.655,0.655,0,0,0-.811.092l-1.466,1.468a0.651,0.651,0,0,1-.545.187,7.672,7.672,0,0,1-4.354-2.316h0Zm7.2-.977a0.655,0.655,0,0,1-.655-0.655,4.919,4.919,0,0,0-4.914-4.914,0.655,0.655,0,0,1,0-1.31A6.23,6.23,0,0,1,316.724,926,0.655,0.655,0,0,1,316.069,926.655Zm3.276,0A0.655,0.655,0,0,1,318.69,926a8.2,8.2,0,0,0-8.19-8.19,0.655,0.655,0,0,1,0-1.31A9.511,9.511,0,0,1,320,926,0.656,0.656,0,0,1,319.345,926.655Z" transform="translate(-301 -916.5)"/>
</svg><svg width="19.438" height="19.438" viewBox="-2 -2 19.438 19.438" id="phone-brown-m" x="393.756" y="369.344" xmlns="http://www.w3.org/2000/svg">
  <defs>
    <style>.bucls-1{fill:#c7c2b1;fill-rule:evenodd}</style>
  </defs>
  <path class="bucls-1" d="M330.175,92.326a6.229,6.229,0,0,1-1.881-3.536,0.531,0.531,0,0,1,.152-0.443l1.192-1.191a0.532,0.532,0,0,0,.075-0.659l-1.9-2.947a0.533,0.533,0,0,0-.69-0.194l-3.046,1.435a0.531,0.531,0,0,0-.293.529,15.9,15.9,0,0,0,13.392,13.393,0.528,0.528,0,0,0,.528-0.293l1.435-3.047a0.532,0.532,0,0,0-.193-0.688L336,92.788a0.533,0.533,0,0,0-.659.075l-1.191,1.192a0.53,0.53,0,0,1-.443.152,6.225,6.225,0,0,1-3.535-1.88h0Zm5.848-.794A0.532,0.532,0,0,1,335.491,91a4,4,0,0,0-3.991-3.991,0.532,0.532,0,0,1,0-1.064A5.06,5.06,0,0,1,336.555,91,0.532,0.532,0,0,1,336.023,91.532Zm2.66,0A0.532,0.532,0,0,1,338.151,91a6.658,6.658,0,0,0-6.651-6.651,0.532,0.532,0,0,1,0-1.064A7.723,7.723,0,0,1,339.215,91,0.532,0.532,0,0,1,338.683,91.532Z" transform="translate(-323.781 -83.281)"/>
</svg><svg width="29.656" height="27.78" viewBox="-2 -2 29.656 27.78" id="plain-m" x="30" y="431.344" xmlns="http://www.w3.org/2000/svg">
  <defs>
    <style>.bvcls-1{fill:#fff;fill-rule:evenodd}</style>
  </defs>
  <path class="bvcls-1" d="M105.341,3365.31a2.2,2.2,0,0,0-3.081-.69l-5.682,3.71-10.289-6.34-2.887,1.8,7.958,7.96-5.847,3.83-2.9-1.21L80,3376l4.071,2.61,0.519,4.84,2.609-1.64,0.209-3.15,6-3.58,3.553,10.71,2.887-1.81-1.087-12.1,5.828-3.48A2.237,2.237,0,0,0,105.341,3365.31Z" transform="translate(-80 -3362)"/>
</svg><svg width="18.31" height="20.531" viewBox="-2 -2 18.31 20.531" id="play" x="150.563" y="347" xmlns="http://www.w3.org/2000/svg">
  <defs>
    <style>.bwcls-1{fill:#282728;fill-rule:evenodd}</style>
  </defs>
  <path id="bwPolygon_1" data-name="Polygon 1" class="bwcls-1" d="M1813.84,574.238l-14.32,8.267V565.971Z" transform="translate(-1799.53 -565.969)"/>
</svg><svg id="point1" width="84" height="84" viewBox="-2 -2 84 84" x="84" y="263" xmlns="http://www.w3.org/2000/svg">
  <defs>
    <style>.bxcls-1{fill:#fff;fill-rule:evenodd}.bxcls-2{fill:none;stroke:#fff;stroke-width:2px}</style>
  </defs>
  <path id="bxI" class="bxcls-1" d="M1637.61,324.745v34.24h2.59v-34.24h-2.59Z" transform="translate(-1598 -301)"/>
  <circle id="bxEllipse_2_copy_13" data-name="Ellipse 2 copy 13" class="bxcls-2" cx="40" cy="40" r="39"/>
</svg><svg id="point2" width="84" height="84" viewBox="-2 -2 84 84" x="168" y="263" xmlns="http://www.w3.org/2000/svg">
  <defs>
    <style>.bycls-1{fill:#fff;fill-rule:evenodd}.bycls-2{fill:none;stroke:#fff;stroke-width:2px}</style>
  </defs>
  <path id="byII" class="bycls-1" d="M1062.83,324.643l-0.43,34.238,2.58,0.033,0.44-34.238Zm13.53,0.173-0.44,34.237,2.59,0.033,0.43-34.238Z" transform="translate(-1031 -301)"/>
  <circle id="byEllipse_2_copy_14" data-name="Ellipse 2 copy 14" class="bycls-2" cx="40" cy="40" r="39"/>
</svg><svg id="point3" width="84" height="84" viewBox="-2 -2 84 84" x="252" y="263" xmlns="http://www.w3.org/2000/svg">
  <defs>
    <style>.bzcls-1{fill:#fff;fill-rule:evenodd}.bzcls-2{fill:none;stroke:#fff;stroke-width:2px}</style>
  </defs>
  <path id="bzIII" class="bzcls-1" d="M270.613,324.745v34.24H273.2v-34.24h-2.587Zm13.526,0v34.24h2.587v-34.24h-2.587Zm13.526,0v34.24h2.587v-34.24h-2.587Z" transform="translate(-246 -301)"/>
  <circle class="bzcls-2" cx="40" cy="40" r="39"/>
</svg><svg id="reserve" width="73" height="73" viewBox="-2 -2 73 73" x="336" y="263" xmlns="http://www.w3.org/2000/svg">
  <defs>
    <style>.cacls-1{fill:#aa998b}.cacls-2{fill:#fff;fill-rule:evenodd}</style>
  </defs>
  <circle id="caEllipse_1_copy_7" data-name="Ellipse 1 copy 7" class="cacls-1" cx="34.5" cy="34.5" r="34.5"/>
  <path id="careserve-2" data-name="reserve" class="cacls-2" d="M1812.52,802a0.729,0.729,0,0,0-.73.724v7.243a0.72,0.72,0,0,1-.72.724h-13.04a0.72,0.72,0,0,1-.72-0.724V795.481a0.72,0.72,0,0,1,.72-0.724h8.69a0.725,0.725,0,1,0,0-1.449h-8.69a2.171,2.171,0,0,0-2.17,2.173v14.486a2.171,2.171,0,0,0,2.17,2.173h13.04a2.171,2.171,0,0,0,2.17-2.173v-7.243A0.72,0.72,0,0,0,1812.52,802Zm2.81-9.328a2.782,2.782,0,0,0-1.96-.813,2.747,2.747,0,0,0-1.96.813l-9.54,9.54a0.8,0.8,0,0,0-.18.283l-1.45,4.346a0.73,0.73,0,0,0,.46.916,0.733,0.733,0,0,0,.46,0l4.34-1.448a0.731,0.731,0,0,0,.29-0.176l9.54-9.54A2.778,2.778,0,0,0,1815.33,792.672Z" transform="translate(-1771 -768)"/>
</svg><svg width="24.281" height="24.25" viewBox="-2 -2 24.281 24.25" id="reserve-m" x="242.12400000000002" y="404.344" xmlns="http://www.w3.org/2000/svg">
  <defs>
    <style>.cbcls-1{fill:#fff;fill-rule:evenodd}</style>
  </defs>
  <path id="cbreserve-m" class="cbcls-1" d="M118.518,1325a0.72,0.72,0,0,0-.724.72v7.25a0.72,0.72,0,0,1-.724.72H104.033a0.721,0.721,0,0,1-.725-0.72v-14.49a0.721,0.721,0,0,1,.725-0.72h8.691a0.729,0.729,0,0,0,.724-0.73,0.72,0.72,0,0,0-.724-0.72h-8.691a2.171,2.171,0,0,0-2.173,2.17v14.49a2.171,2.171,0,0,0,2.173,2.17H117.07a2.171,2.171,0,0,0,2.173-2.17v-7.25A0.721,0.721,0,0,0,118.518,1325Zm2.81-9.33a2.778,2.778,0,0,0-3.921,0l-9.541,9.54a0.727,0.727,0,0,0-.174.29l-1.449,4.34a0.73,0.73,0,0,0,.459.92,0.864,0.864,0,0,0,.228.03,0.878,0.878,0,0,0,.229-0.03l4.345-1.45a0.79,0.79,0,0,0,.284-0.18l9.54-9.54A2.771,2.771,0,0,0,121.328,1315.67Z" transform="translate(-101.875 -1314.88)"/>
</svg><svg width="44" height="14.407" viewBox="-2 -2 44 14.407" id="sea" x="471" y="157.781" xmlns="http://www.w3.org/2000/svg">
  <defs>
    <style>.cccls-1{fill:#fff;fill-rule:evenodd}</style>
  </defs>
  <path class="cccls-1" d="M929.488,738.893c15.142-4.342,20.861,4.424,37.635.007a1.182,1.182,0,0,0-.592-2.288c-16.116,4.244-21.843-4.536-37.684.007a1.183,1.183,0,0,0-.807,1.46,1.17,1.17,0,0,0,1.448.814h0Zm37.043,3.237c-16.146,4.251-21.811-4.546-37.684.006a1.184,1.184,0,0,0-.807,1.461,1.171,1.171,0,0,0,1.448.814c15.142-4.342,20.861,4.424,37.635.007a1.183,1.183,0,0,0,.838-1.443,1.171,1.171,0,0,0-1.43-.845h0Z" transform="translate(-928 -735.281)"/>
</svg><svg width="20" height="17" viewBox="-2 -2 20 17" id="send-arrow-left-white" x="185.873" y="347" xmlns="http://www.w3.org/2000/svg">
  <defs>
    <style>.cdcls-1{fill:#fff;fill-rule:evenodd}</style>
  </defs>
  <path class="cdcls-1" d="M1200.9,10137.3h10.68l-3.36-3.3a0.938,0.938,0,0,1-.26-0.6,0.64,0.64,0,0,1,.26-0.6l0.52-.5a0.776,0.776,0,0,1,.62-0.3,1.266,1.266,0,0,1,.62.2l5.77,5.7a0.845,0.845,0,0,1,0,1.2l-5.77,5.7a1.266,1.266,0,0,1-.62.2,1.2,1.2,0,0,1-.62-0.2l-0.52-.6a0.64,0.64,0,0,1-.26-0.6,0.938,0.938,0,0,1,.26-0.6l3.4-3.3h-10.73a0.9,0.9,0,0,1-.89-0.9v-0.7A0.828,0.828,0,0,1,1200.9,10137.3Z" transform="translate(-1200 -10132)"/>
</svg><svg width="27" height="27" viewBox="-2 -2 27 27" id="sun-brown" x="59.656" y="431.344" xmlns="http://www.w3.org/2000/svg">
  <defs>
    <style>.cecls-1{fill:#aa998b;fill-rule:evenodd}</style>
  </defs>
  <path class="cecls-1" d="M706.577,961.423a5.8,5.8,0,0,0-4.077-1.7,5.676,5.676,0,0,0-4.077,1.7,5.78,5.78,0,0,0,4.077,9.857,5.675,5.675,0,0,0,4.077-1.7,5.8,5.8,0,0,0,1.7-4.077A5.679,5.679,0,0,0,706.577,961.423Zm-4.077-3.5a0.805,0.805,0,0,0,.791-0.791v-2.342a0.791,0.791,0,0,0-1.582,0v2.342A0.805,0.805,0,0,0,702.5,957.924Zm6.48,2.221,1.673-1.673a0.774,0.774,0,0,0-1.1-1.1l-1.673,1.673A0.774,0.774,0,0,0,708.98,960.145Zm4.229,4.564h-2.343a0.791,0.791,0,0,0,0,1.582h2.343A0.791,0.791,0,0,0,713.209,964.709Zm-4.259,6.145a0.775,0.775,0,0,0-1.1,1.1l1.674,1.673a0.774,0.774,0,0,0,1.1-1.1Zm-6.45,2.221a0.805,0.805,0,0,0-.791.791v2.343a0.791,0.791,0,0,0,1.582,0v-2.343A0.805,0.805,0,0,0,702.5,973.075Zm-6.48-2.221-1.674,1.674a0.775,0.775,0,0,0,1.1,1.1l1.673-1.673A0.775,0.775,0,0,0,696.02,970.854Zm-1.1-5.354a0.805,0.805,0,0,0-.791-0.791h-2.342a0.791,0.791,0,0,0,0,1.582h2.342A0.805,0.805,0,0,0,694.924,965.5Zm1.1-5.355a0.774,0.774,0,0,0,1.1-1.1l-1.673-1.673a0.775,0.775,0,0,0-1.1,1.1Z" transform="translate(-691 -954)"/>
</svg><svg width="27" height="27" viewBox="-2 -2 27 27" id="sun-white" x="86.656" y="431.344" xmlns="http://www.w3.org/2000/svg">
  <defs>
    <style>.cfcls-1{fill:#fff;fill-rule:evenodd}</style>
  </defs>
  <path class="cfcls-1" d="M706.577,961.423a5.8,5.8,0,0,0-4.077-1.7,5.676,5.676,0,0,0-4.077,1.7,5.78,5.78,0,0,0,4.077,9.857,5.675,5.675,0,0,0,4.077-1.7,5.8,5.8,0,0,0,1.7-4.077A5.679,5.679,0,0,0,706.577,961.423Zm-4.077-3.5a0.805,0.805,0,0,0,.791-0.791v-2.342a0.791,0.791,0,0,0-1.582,0v2.342A0.805,0.805,0,0,0,702.5,957.924Zm6.48,2.221,1.673-1.673a0.774,0.774,0,0,0-1.1-1.1l-1.673,1.673A0.774,0.774,0,0,0,708.98,960.145Zm4.229,4.564h-2.343a0.791,0.791,0,0,0,0,1.582h2.343A0.791,0.791,0,0,0,713.209,964.709Zm-4.259,6.145a0.775,0.775,0,0,0-1.1,1.1l1.674,1.673a0.774,0.774,0,0,0,1.1-1.1Zm-6.45,2.221a0.805,0.805,0,0,0-.791.791v2.343a0.791,0.791,0,0,0,1.582,0v-2.343A0.805,0.805,0,0,0,702.5,973.075Zm-6.48-2.221-1.674,1.674a0.775,0.775,0,0,0,1.1,1.1l1.673-1.673A0.775,0.775,0,0,0,696.02,970.854Zm-1.1-5.354a0.805,0.805,0,0,0-.791-0.791h-2.342a0.791,0.791,0,0,0,0,1.582h2.342A0.805,0.805,0,0,0,694.924,965.5Zm1.1-5.355a0.774,0.774,0,0,0,1.1-1.1l-1.673-1.673a0.775,0.775,0,0,0-1.1,1.1Z" transform="translate(-691 -954)"/>
</svg><svg width="28.062" height="25.125" viewBox="-2 -2 28.062 25.125" id="sunset-brown" x="186" y="404.344" xmlns="http://www.w3.org/2000/svg">
  <defs>
    <style>.cgcls-1{fill:#aa998b;fill-rule:evenodd}</style>
  </defs>
  <path id="cg_1" data-name=" 1" class="cgcls-1" d="M714.881,973.319a2.477,2.477,0,0,0-2.042-1.068,2.393,2.393,0,0,0-2,1.068,1.015,1.015,0,0,1-1.645,0,2.4,2.4,0,0,0-3.99,0,1.015,1.015,0,0,1-1.645,0,2.4,2.4,0,0,0-3.99,0,1.015,1.015,0,0,1-1.645,0,2.4,2.4,0,0,0-3.99,0,1.063,1.063,0,0,1-1.693,0,0.7,0.7,0,1,0-1.172.781,2.39,2.39,0,0,0,2.042.969,2.3,2.3,0,0,0,2-.969,1.015,1.015,0,0,1,1.645,0,2.538,2.538,0,0,0,3.99,0,1.015,1.015,0,0,1,1.645,0,2.538,2.538,0,0,0,3.99,0,1.016,1.016,0,0,1,1.646,0,2.537,2.537,0,0,0,3.989,0,1.063,1.063,0,0,1,1.693,0A0.7,0.7,0,1,0,714.881,973.319Zm-20.356-8.114H691.66a0.7,0.7,0,0,0,0,1.409h2.865A0.7,0.7,0,0,0,694.525,965.205Zm19.77,0H711.43a0.7,0.7,0,0,0,0,1.409H714.3A0.7,0.7,0,0,0,714.3,965.205Zm-2.85-7.766a0.7,0.7,0,0,0-1,0l-1.992,1.993a0.7,0.7,0,0,0,1,1l1.992-1.993A0.706,0.706,0,0,0,711.445,957.439Zm-8.467-3.508a0.7,0.7,0,0,0-.7.7v2.819a0.7,0.7,0,1,0,1.409,0v-2.819A0.7,0.7,0,0,0,702.978,953.931Zm-5.479,5.5-1.993-1.993a0.7,0.7,0,0,0-1,1l1.992,1.993A0.7,0.7,0,0,0,697.5,959.432Zm17.382,9.659a2.475,2.475,0,0,0-2.042-1.068,2.393,2.393,0,0,0-2,1.068,1.015,1.015,0,0,1-1.645,0,2.4,2.4,0,0,0-3.99,0,1.015,1.015,0,0,1-1.645,0,2.4,2.4,0,0,0-3.99,0,1.015,1.015,0,0,1-1.645,0,2.4,2.4,0,0,0-3.99,0,1.062,1.062,0,0,1-1.692,0,0.7,0.7,0,1,0-1.173.782,2.392,2.392,0,0,0,2.042.968,2.306,2.306,0,0,0,2-.968,1.014,1.014,0,0,1,1.645,0,2.54,2.54,0,0,0,3.99,0,1.015,1.015,0,0,1,1.646,0,2.539,2.539,0,0,0,3.989,0,1.015,1.015,0,0,1,1.646,0,2.539,2.539,0,0,0,3.989,0,1.062,1.062,0,0,1,1.693,0A0.7,0.7,0,1,0,714.881,969.091Zm-11.9-9.523a6.1,6.1,0,0,0-6.256,7.129,3.007,3.007,0,0,0,4.847-.083,3.806,3.806,0,0,0,5.635,0,3.785,3.785,0,0,1,1.969.57A6.278,6.278,0,0,0,702.978,959.568Z" transform="translate(-690.938 -953.938)"/>
</svg><svg width="28.062" height="25.125" viewBox="-2 -2 28.062 25.125" id="sunset-white" x="214.062" y="404.344" xmlns="http://www.w3.org/2000/svg">
  <defs>
    <style>.chcls-1{fill:#fff;fill-rule:evenodd}</style>
  </defs>
  <path id="ch_1" data-name=" 1" class="chcls-1" d="M714.881,973.319a2.477,2.477,0,0,0-2.042-1.068,2.393,2.393,0,0,0-2,1.068,1.015,1.015,0,0,1-1.645,0,2.4,2.4,0,0,0-3.99,0,1.015,1.015,0,0,1-1.645,0,2.4,2.4,0,0,0-3.99,0,1.015,1.015,0,0,1-1.645,0,2.4,2.4,0,0,0-3.99,0,1.063,1.063,0,0,1-1.693,0,0.7,0.7,0,1,0-1.172.781,2.39,2.39,0,0,0,2.042.969,2.3,2.3,0,0,0,2-.969,1.015,1.015,0,0,1,1.645,0,2.538,2.538,0,0,0,3.99,0,1.015,1.015,0,0,1,1.645,0,2.538,2.538,0,0,0,3.99,0,1.016,1.016,0,0,1,1.646,0,2.537,2.537,0,0,0,3.989,0,1.063,1.063,0,0,1,1.693,0A0.7,0.7,0,1,0,714.881,973.319Zm-20.356-8.114H691.66a0.7,0.7,0,0,0,0,1.409h2.865A0.7,0.7,0,0,0,694.525,965.205Zm19.77,0H711.43a0.7,0.7,0,0,0,0,1.409H714.3A0.7,0.7,0,0,0,714.3,965.205Zm-2.85-7.766a0.7,0.7,0,0,0-1,0l-1.992,1.993a0.7,0.7,0,0,0,1,1l1.992-1.993A0.706,0.706,0,0,0,711.445,957.439Zm-8.467-3.508a0.7,0.7,0,0,0-.7.7v2.819a0.7,0.7,0,1,0,1.409,0v-2.819A0.7,0.7,0,0,0,702.978,953.931Zm-5.479,5.5-1.993-1.993a0.7,0.7,0,0,0-1,1l1.992,1.993A0.7,0.7,0,0,0,697.5,959.432Zm17.382,9.659a2.475,2.475,0,0,0-2.042-1.068,2.393,2.393,0,0,0-2,1.068,1.015,1.015,0,0,1-1.645,0,2.4,2.4,0,0,0-3.99,0,1.015,1.015,0,0,1-1.645,0,2.4,2.4,0,0,0-3.99,0,1.015,1.015,0,0,1-1.645,0,2.4,2.4,0,0,0-3.99,0,1.062,1.062,0,0,1-1.692,0,0.7,0.7,0,1,0-1.173.782,2.392,2.392,0,0,0,2.042.968,2.306,2.306,0,0,0,2-.968,1.014,1.014,0,0,1,1.645,0,2.54,2.54,0,0,0,3.99,0,1.015,1.015,0,0,1,1.646,0,2.539,2.539,0,0,0,3.989,0,1.015,1.015,0,0,1,1.646,0,2.539,2.539,0,0,0,3.989,0,1.062,1.062,0,0,1,1.693,0A0.7,0.7,0,1,0,714.881,969.091Zm-11.9-9.523a6.1,6.1,0,0,0-6.256,7.129,3.007,3.007,0,0,0,4.847-.083,3.806,3.806,0,0,0,5.635,0,3.785,3.785,0,0,1,1.969.57A6.278,6.278,0,0,0,702.978,959.568Z" transform="translate(-690.938 -953.938)"/>
</svg><svg width="14" height="15" viewBox="-2 -2 14 15" id="triangle-left-brown-light" x="330.875" y="231.312" xmlns="http://www.w3.org/2000/svg">
  <defs>
    <style>.cicls-1{fill:#dec8b6;fill-rule:evenodd}</style>
  </defs>
  <path id="ciPolygon_1_copy_5" data-name="Polygon 1 copy 5" class="cicls-1" d="M1681,10137.5l-10-5.5v11Z" transform="translate(-1671 -10132)"/>
</svg><svg width="14" height="15" viewBox="-2 -2 14 15" id="triangle-left-white" x="344.875" y="231.312" xmlns="http://www.w3.org/2000/svg">
  <defs>
    <style>.cjcls-1{fill:#fff;fill-rule:evenodd}</style>
  </defs>
  <path id="cjPolygon_1_copy_10" data-name="Polygon 1 copy 10" class="cjcls-1" d="M1116,2384.5l-10-5.5v11Z" transform="translate(-1106 -2379)"/>
</svg><svg width="19" height="13" viewBox="-2 -2 19 13" id="triangle-top" x="445.876" y="218" xmlns="http://www.w3.org/2000/svg">
  <defs>
    <style>.ckcls-1{fill:#fff;fill-rule:evenodd}</style>
  </defs>
  <path id="ckPolygon_1" data-name="Polygon 1" class="ckcls-1" d="M958.5,895l-7.509,9.012h15.018Z" transform="translate(-951 -895)"/>
</svg><svg width="86.438" height="13.312" viewBox="-2 -2 86.438 13.312" id="vtour-arrow-left" x="273" y="218" xmlns="http://www.w3.org/2000/svg">
  <defs>
    <style>.clcls-1{fill:#fff;fill-rule:evenodd}</style>
  </defs>
  <path id="clShape_5_copy_5" data-name="Shape 5 copy 5" class="clcls-1" d="M150.084,663.621l0.017,0H71.436l2.41-2.362a0.61,0.61,0,0,0,0-.871l-0.375-.366a0.636,0.636,0,0,0-.885,0l-4.131,4.04a0.608,0.608,0,0,0,0,.869l4.131,4.041a0.637,0.637,0,0,0,.885,0l0.375-.367a0.6,0.6,0,0,0,.183-0.433,0.582,0.582,0,0,0-.183-0.425l-2.437-2.375h78.683a0.643,0.643,0,0,0,.636-0.629v-0.519A0.631,0.631,0,0,0,150.084,663.621Z" transform="translate(-68.281 -659.844)"/>
</svg><svg width="86.438" height="13.312" viewBox="-2 -2 86.438 13.312" id="vtour-arrow-right" x="359.438" y="218" xmlns="http://www.w3.org/2000/svg">
  <defs>
    <style>.cmcls-1{fill:#fff;fill-rule:evenodd}</style>
  </defs>
  <path id="cmShape_5_copy_4" data-name="Shape 5 copy 4" class="cmcls-1" d="M228.916,663.621l-0.017,0h78.665l-2.41-2.362a0.61,0.61,0,0,1,0-.871l0.375-.366a0.635,0.635,0,0,1,.885,0l4.131,4.04a0.607,0.607,0,0,1,0,.869l-4.131,4.041a0.636,0.636,0,0,1-.885,0l-0.375-.367a0.6,0.6,0,0,1-.183-0.433,0.583,0.583,0,0,1,.183-0.425l2.437-2.375H228.908a0.643,0.643,0,0,1-.636-0.629v-0.519A0.631,0.631,0,0,1,228.916,663.621Z" transform="translate(-228.281 -659.844)"/>
</svg><svg width="15.18" height="28.812" viewBox="-2 -2 15.18 28.812" id="vtour-mark-white" x="25" y="461.344" xmlns="http://www.w3.org/2000/svg">
  <defs>
    <style>.cncls-1{fill:#f2f1f3;fill-rule:evenodd}</style>
  </defs>
  <path id="cnShape_11_copy_2" data-name="Shape 11 copy 2" class="cncls-1" d="M1409.52,844.358h1.12l1.16,6.47a1.105,1.105,0,0,0,1.12,1.078h2.16a1.106,1.106,0,0,0,1.12-1.078l1.16-6.47h1.13a1.107,1.107,0,0,0,1.12-1.079v-6.471a2.71,2.71,0,0,0-2.47-1.938,20.332,20.332,0,0,0-3.12-.2,20.7,20.7,0,0,0-3.16.2,2.713,2.713,0,0,0-2.47,1.938v6.471A1.109,1.109,0,0,0,1409.52,844.358Zm4.48-10.786a3.238,3.238,0,1,0-3.36-3.235A3.3,3.3,0,0,0,1414,833.572Z" transform="translate(-1408.41 -827.094)"/>
</svg><svg id="windrose" width="84" height="106.344" viewBox="-2 -2 84 106.344" y="263" xmlns="http://www.w3.org/2000/svg">
  <defs>
    <style>.cocls-1{fill:#fff}.cocls-1,.cocls-3{fill-rule:evenodd}.cocls-2,.cocls-3{fill:none;stroke:#fff;stroke-width:2px}</style>
  </defs>
  <path id="co" class="cocls-1" d="M1547.69,159.494a4.246,4.246,0,0,0,1.62-1.618l-1.05-.6a2.977,2.977,0,0,1-1.16,1.189,3.371,3.371,0,0,1-1.71.449,3.438,3.438,0,0,1-2.57-1.014,3.7,3.7,0,0,1,0-5.057,3.438,3.438,0,0,1,2.57-1.014,3.37,3.37,0,0,1,1.71.448,2.955,2.955,0,0,1,1.16,1.2l1.05-.611a4.292,4.292,0,0,0-1.63-1.612,4.536,4.536,0,0,0-2.29-.6,4.72,4.72,0,1,0,0,9.438A4.538,4.538,0,0,0,1547.69,159.494Z" transform="translate(-1506 -150.656)"/>
  <circle id="coEllipse_2_copy_3" data-name="Ellipse 2 copy 3" class="cocls-2" cx="40" cy="62.344" r="39"/>
  <path id="coPolygon_1" data-name="Polygon 1" class="cocls-3" d="M1545.99,187.4l-7.7,13.2h15.4Z" transform="translate(-1506 -150.656)"/>
</svg><svg id="windrose-blue" width="84" height="106.344" viewBox="-2 -2 84 106.344" x="387" y="104" xmlns="http://www.w3.org/2000/svg">
  <defs>
    <style>.cpcls-1{fill:#2d84a0}.cpcls-1,.cpcls-3{fill-rule:evenodd}.cpcls-2,.cpcls-3{fill:none;stroke:#2d84a0;stroke-width:2px}</style>
  </defs>
  <path id="cp" class="cpcls-1" d="M1547.69,159.494a4.246,4.246,0,0,0,1.62-1.618l-1.05-.6a2.977,2.977,0,0,1-1.16,1.189,3.371,3.371,0,0,1-1.71.449,3.438,3.438,0,0,1-2.57-1.014,3.7,3.7,0,0,1,0-5.057,3.438,3.438,0,0,1,2.57-1.014,3.37,3.37,0,0,1,1.71.448,2.955,2.955,0,0,1,1.16,1.2l1.05-.611a4.292,4.292,0,0,0-1.63-1.612,4.536,4.536,0,0,0-2.29-.6,4.72,4.72,0,1,0,0,9.438A4.538,4.538,0,0,0,1547.69,159.494Z" transform="translate(-1506 -150.656)"/>
  <circle id="cpEllipse_2_copy_3" data-name="Ellipse 2 copy 3" class="cpcls-2" cx="40" cy="62.344" r="39"/>
  <path id="cpPolygon_1" data-name="Polygon 1" class="cpcls-3" d="M1545.99,187.4l-7.7,13.2h15.4Z" transform="translate(-1506 -150.656)"/>
</svg></svg>